BenchTwelve-Black.ufo
<glyph name="percent" format="1">
  <advance width="2655"/>
  <unicode hex="0025"/>
  <outline>
    <contour>
      <point x="2074" y="-40" type="curve" smooth="yes"/>
      <point x="2371" y="-40"/>
      <point x="2523" y="194"/>
      <point x="2523" y="431" type="curve" smooth="yes"/>
      <point x="2523" y="667"/>
      <point x="2375" y="897"/>
      <point x="2074" y="897" type="curve" smooth="yes"/>
      <point x="1773" y="897"/>
      <point x="1625" y="667"/>
      <point x="1625" y="431" type="curve" smooth="yes"/>
      <point x="1625" y="194"/>
      <point x="1777" y="-40"/>
    </contour>
    <contour>
      <point x="2074" y="134" type="curve" smooth="yes"/>
      <point x="1953" y="134"/>
      <point x="1891" y="241"/>
      <point x="1891" y="425" type="curve" smooth="yes"/>
      <point x="1891" y="613"/>
      <point x="1956" y="723"/>
      <point x="2074" y="723" type="curve" smooth="yes"/>
      <point x="2194" y="723"/>
      <point x="2257" y="613"/>
      <point x="2257" y="425" type="curve" smooth="yes"/>
      <point x="2257" y="241"/>
      <point x="2196" y="134"/>
    </contour>
    <contour>
      <point x="578" y="560" type="curve" smooth="yes"/>
      <point x="875" y="560"/>
      <point x="1026" y="793"/>
      <point x="1026" y="1031" type="curve" smooth="yes"/>
      <point x="1026" y="1267"/>
      <point x="879" y="1497"/>
      <point x="578" y="1497" type="curve" smooth="yes"/>
      <point x="277" y="1497"/>
      <point x="129" y="1267"/>
      <point x="129" y="1031" type="curve" smooth="yes"/>
      <point x="129" y="793"/>
      <point x="281" y="560"/>
    </contour>
    <contour>
      <point x="578" y="734" type="curve" smooth="yes"/>
      <point x="457" y="734"/>
      <point x="395" y="840"/>
      <point x="395" y="1024" type="curve" smooth="yes"/>
      <point x="395" y="1212"/>
      <point x="459" y="1323"/>
      <point x="578" y="1323" type="curve" smooth="yes"/>
      <point x="697" y="1323"/>
      <point x="761" y="1212"/>
      <point x="761" y="1024" type="curve" smooth="yes"/>
      <point x="761" y="840"/>
      <point x="700" y="734"/>
    </contour>
    <contour>
      <point x="887" y="-82" type="curve" smooth="yes"/>
      <point x="1033" y="-82" type="line" smooth="yes"/>
      <point x="1079" y="-82"/>
      <point x="1122" y="-54"/>
      <point x="1141" y="-12" type="curve" smooth="yes"/>
      <point x="1795" y="1466" type="line" smooth="yes"/>
      <point x="1798.1" y="1472.82"/>
      <point x="1799.53" y="1479.8"/>
      <point x="1799.53" y="1486.6" type="curve" smooth="yes"/>
      <point x="1799.53" y="1512.7"/>
      <point x="1778.36" y="1536"/>
      <point x="1749" y="1536" type="curve" smooth="yes"/>
      <point x="1604" y="1536" type="line" smooth="yes"/>
      <point x="1558" y="1536"/>
      <point x="1514" y="1508"/>
      <point x="1496" y="1466" type="curve" smooth="yes"/>
      <point x="841" y="-12" type="line" smooth="yes"/>
      <point x="837.902" y="-18.8153"/>
      <point x="836.468" y="-25.8013"/>
      <point x="836.468" y="-32.5967" type="curve" smooth="yes"/>
      <point x="836.468" y="-58.7047"/>
      <point x="857.641" y="-82"/>
    </contour>
  </outline>
</glyph>
<glyph name="parenleft" format="1">
  <advance width="1003"/>
  <unicode hex="0028"/>
  <outline>
    <contour>
      <point x="800" y="-143" type="curve" smooth="yes"/>
      <point x="801.999" y="-143.205"/>
      <point x="803.995" y="-143.305"/>
      <point x="805.983" y="-143.305" type="curve" smooth="yes"/>
      <point x="842.795" y="-143.305"/>
      <point x="877" y="-109.053"/>
      <point x="877" y="-73" type="curve" smooth="yes"/>
      <point x="877" y="15" type="line" smooth="yes"/>
      <point x="877" y="84"/>
      <point x="859" y="101"/>
      <point x="798" y="132" type="curve" smooth="yes"/>
      <point x="659" y="205"/>
      <point x="590" y="432"/>
      <point x="590" y="698" type="curve" smooth="yes"/>
      <point x="590" y="964"/>
      <point x="664" y="1198"/>
      <point x="798" y="1266" type="curve" smooth="yes"/>
      <point x="860" y="1298"/>
      <point x="877" y="1315"/>
      <point x="877" y="1384" type="curve" smooth="yes"/>
      <point x="877" y="1470" type="line" smooth="yes"/>
      <point x="877" y="1506.05"/>
      <point x="842.795" y="1540.3"/>
      <point x="805.983" y="1540.3" type="curve" smooth="yes"/>
      <point x="803.995" y="1540.3"/>
      <point x="801.999" y="1540.2"/>
      <point x="800" y="1540" type="curve" smooth="yes"/>
      <point x="358" y="1490"/>
      <point x="139" y="1098"/>
      <point x="139" y="698" type="curve" smooth="yes"/>
      <point x="139" y="297"/>
      <point x="355" y="-93"/>
    </contour>
  </outline>
</glyph>
<glyph name="parenright" format="1">
  <advance width="1006"/>
  <unicode hex="0029"/>
  <outline>
    <contour>
      <point x="204" y="-143" type="curve" smooth="yes"/>
      <point x="652" y="-97"/>
      <point x="865" y="297"/>
      <point x="865" y="698" type="curve" smooth="yes"/>
      <point x="865" y="1098"/>
      <point x="652" y="1493"/>
      <point x="204" y="1540" type="curve" smooth="yes"/>
      <point x="202.001" y="1540.2"/>
      <point x="200.005" y="1540.3"/>
      <point x="198.017" y="1540.3" type="curve" smooth="yes"/>
      <point x="161.205" y="1540.3"/>
      <point x="127" y="1506.05"/>
      <point x="127" y="1470" type="curve" smooth="yes"/>
      <point x="127" y="1384" type="line" smooth="yes"/>
      <point x="127" y="1315"/>
      <point x="144" y="1297"/>
      <point x="206" y="1266" type="curve" smooth="yes"/>
      <point x="338" y="1200"/>
      <point x="414" y="974"/>
      <point x="414" y="698" type="curve" smooth="yes"/>
      <point x="414" y="423"/>
      <point x="339" y="198"/>
      <point x="206" y="132" type="curve" smooth="yes"/>
      <point x="144" y="102"/>
      <point x="127" y="84"/>
      <point x="127" y="15" type="curve" smooth="yes"/>
      <point x="127" y="-73" type="line" smooth="yes"/>
      <point x="127" y="-109.053"/>
      <point x="161.205" y="-143.305"/>
      <point x="198.017" y="-143.305" type="curve" smooth="yes"/>
      <point x="200.005" y="-143.305"/>
      <point x="202.001" y="-143.205"/>
    </contour>
  </outline>
</glyph>
<glyph name="slash" format="1">
  <advance width="1400"/>
  <unicode hex="002F"/>
  <outline>
    <contour>
      <point x="517" y="-219" type="curve"/>
      <point x="536" y="-219"/>
      <point x="588" y="-209"/>
      <point x="594" y="-194" type="curve"/>
      <point x="609" y="-194"/>
      <point x="1093" y="1061"/>
      <point x="1097" y="1072" type="curve" smooth="yes"/>
      <point x="1100.87" y="1083.61"/>
      <point x="1281.63" y="1584.7"/>
      <point x="1281.63" y="1617.33" type="curve" smooth="yes"/>
      <point x="1281.63" y="1618.43"/>
      <point x="1281.42" y="1619"/>
      <point x="1281" y="1619" type="curve"/>
      <point x="1289" y="1637"/>
      <point x="910" y="1647"/>
      <point x="895" y="1647" type="curve" smooth="yes"/>
      <point x="876" y="1647"/>
      <point x="815" y="1637"/>
      <point x="809" y="1623" type="curve"/>
      <point x="805" y="1623"/>
      <point x="318" y="373"/>
      <point x="314" y="364" type="curve" smooth="yes"/>
      <point x="310.126" y="352.379"/>
      <point x="123.39" y="-165.631"/>
      <point x="123.39" y="-198.379" type="curve" smooth="yes"/>
      <point x="123.39" y="-199.448"/>
      <point x="123.589" y="-200"/>
      <point x="124" y="-200" type="curve"/>
      <point x="118" y="-214"/>
      <point x="503" y="-218"/>
    </contour>
  </outline>
</glyph>
<glyph name="five" format="1">
  <advance width="2238"/>
  <unicode hex="0035"/>
  <outline>
    <contour>
      <point x="1050" y="-40" type="curve"/>
      <point x="1053" y="-40" type="line" smooth="yes"/>
      <point x="1658" y="-40"/>
      <point x="2103" y="56"/>
      <point x="2103" y="447" type="curve" smooth="yes"/>
      <point x="2103" y="728"/>
      <point x="1896" y="934"/>
      <point x="1241" y="934" type="curve" smooth="yes"/>
      <point x="1062" y="934"/>
      <point x="942" y="903"/>
      <point x="834" y="863" type="curve"/>
      <point x="831" y="1057" type="line" smooth="yes"/>
      <point x="831" y="1119"/>
      <point x="856" y="1129"/>
      <point x="901" y="1129" type="curve" smooth="yes"/>
      <point x="1878" y="1126" type="line" smooth="yes"/>
      <point x="1904" y="1126"/>
      <point x="1918.55" y="1138.93"/>
      <point x="1922" y="1170" type="curve" smooth="yes"/>
      <point x="1924" y="1188"/>
      <point x="1946" y="1360"/>
      <point x="1946" y="1380" type="curve" smooth="yes"/>
      <point x="1946" y="1410"/>
      <point x="1931" y="1438"/>
      <point x="1893" y="1438" type="curve" smooth="yes"/>
      <point x="234" y="1438" type="line" smooth="yes"/>
      <point x="165" y="1438"/>
      <point x="144" y="1393"/>
      <point x="144" y="1318" type="curve"/>
      <point x="208" y="680" type="line" smooth="yes"/>
      <point x="212" y="639"/>
      <point x="221" y="598"/>
      <point x="288" y="598" type="curve" smooth="yes"/>
      <point x="743" y="598" type="line" smooth="yes"/>
      <point x="895" y="598"/>
      <point x="880" y="699"/>
      <point x="1128" y="699" type="curve" smooth="yes"/>
      <point x="1379" y="699"/>
      <point x="1433" y="591"/>
      <point x="1433" y="487" type="curve" smooth="yes"/>
      <point x="1433" y="300"/>
      <point x="1220" y="270"/>
      <point x="1051" y="270" type="curve" smooth="yes"/>
      <point x="717" y="270"/>
      <point x="301" y="361"/>
      <point x="262" y="368" type="curve" smooth="yes"/>
      <point x="253" y="370"/>
      <point x="246" y="371"/>
      <point x="239" y="371" type="curve" smooth="yes"/>
      <point x="213" y="371"/>
      <point x="199" y="358"/>
      <point x="195" y="327" type="curve" smooth="yes"/>
      <point x="194" y="317"/>
      <point x="171" y="133"/>
      <point x="171" y="129" type="curve" smooth="yes"/>
      <point x="171" y="99"/>
      <point x="187" y="82"/>
      <point x="224" y="72" type="curve" smooth="yes"/>
      <point x="336" y="39"/>
      <point x="809" y="-39"/>
    </contour>
  </outline>
</glyph>
<glyph name="nine" format="1">
  <advance width="2305"/>
  <unicode hex="0039"/>
  <outline>
    <contour>
      <point x="1082" y="752" type="curve" smooth="yes"/>
      <point x="846" y="752"/>
      <point x="787" y="824"/>
      <point x="787" y="973" type="curve" smooth="yes"/>
      <point x="787" y="1146"/>
      <point x="905" y="1187"/>
      <point x="1108" y="1187" type="curve" smooth="yes"/>
      <point x="1314" y="1187"/>
      <point x="1448" y="1138"/>
      <point x="1448" y="924" type="curve" smooth="yes"/>
      <point x="1448" y="794" type="line"/>
      <point x="1310" y="767"/>
      <point x="1186" y="752"/>
    </contour>
    <contour>
      <point x="1062" y="-40" type="curve" smooth="yes"/>
      <point x="1863" y="-40"/>
      <point x="2166" y="208"/>
      <point x="2166" y="765" type="curve" smooth="yes"/>
      <point x="2166" y="1241"/>
      <point x="1742" y="1475"/>
      <point x="1123" y="1475" type="curve" smooth="yes"/>
      <point x="540" y="1475"/>
      <point x="131" y="1367"/>
      <point x="131" y="979" type="curve" smooth="yes"/>
      <point x="131" y="702"/>
      <point x="390" y="507"/>
      <point x="1038" y="507" type="curve" smooth="yes"/>
      <point x="1176" y="507"/>
      <point x="1303" y="530"/>
      <point x="1445" y="552" type="curve"/>
      <point x="1445" y="529" type="line"/>
      <point x="1446.04" y="297.038"/>
      <point x="1288.65" y="273.788"/>
      <point x="1002.48" y="273.788" type="curve" smooth="yes"/>
      <point x="701.311" y="273.788"/>
      <point x="403.688" y="354.342"/>
      <point x="359" y="366" type="curve" smooth="yes"/>
      <point x="351" y="368"/>
      <point x="344" y="369"/>
      <point x="337" y="369" type="curve" smooth="yes"/>
      <point x="313" y="369"/>
      <point x="299" y="357"/>
      <point x="295" y="328" type="curve" smooth="yes"/>
      <point x="268" y="138" type="line" smooth="yes"/>
      <point x="267" y="133"/>
      <point x="267" y="128"/>
      <point x="267" y="124" type="curve" smooth="yes"/>
      <point x="267" y="96"/>
      <point x="282" y="80"/>
      <point x="316" y="70" type="curve" smooth="yes"/>
      <point x="430" y="35"/>
      <point x="832" y="-40"/>
    </contour>
  </outline>
</glyph>
<glyph name="colon" format="1">
  <advance width="670"/>
  <unicode hex="003A"/>
  <outline>
    <contour>
      <point x="228" y="671" type="curve" smooth="yes"/>
      <point x="441" y="671" type="line" smooth="yes"/>
      <point x="484" y="671"/>
      <point x="518" y="705"/>
      <point x="518" y="748" type="curve" smooth="yes"/>
      <point x="518" y="936" type="line" smooth="yes"/>
      <point x="518" y="979"/>
      <point x="484" y="1013"/>
      <point x="441" y="1013" type="curve" smooth="yes"/>
      <point x="228" y="1013" type="line" smooth="yes"/>
      <point x="185" y="1013"/>
      <point x="151" y="979"/>
      <point x="151" y="936" type="curve" smooth="yes"/>
      <point x="151" y="748" type="line" smooth="yes"/>
      <point x="151" y="705"/>
      <point x="185" y="671"/>
    </contour>
    <contour>
      <point x="228" y="0" type="curve" smooth="yes"/>
      <point x="441" y="0" type="line" smooth="yes"/>
      <point x="484" y="0"/>
      <point x="518" y="34"/>
      <point x="518" y="77" type="curve" smooth="yes"/>
      <point x="518" y="265" type="line" smooth="yes"/>
      <point x="518" y="308"/>
      <point x="484" y="342"/>
      <point x="441" y="342" type="curve" smooth="yes"/>
      <point x="228" y="342" type="line" smooth="yes"/>
      <point x="185" y="342"/>
      <point x="151" y="308"/>
      <point x="151" y="265" type="curve" smooth="yes"/>
      <point x="151" y="77" type="line" smooth="yes"/>
      <point x="151" y="34"/>
      <point x="185" y="0"/>
    </contour>
  </outline>
</glyph>
<glyph name="G" format="1">
  <advance width="2485"/>
  <unicode hex="0047"/>
  <outline>
    <contour>
      <point x="1235" y="-41" type="curve" smooth="yes"/>
      <point x="1425" y="-41"/>
      <point x="1852" y="-12"/>
      <point x="2028" y="275" type="curve" smooth="yes"/>
      <point x="2032" y="281"/>
      <point x="2038" y="285"/>
      <point x="2043" y="285" type="curve" smooth="yes"/>
      <point x="2049" y="285"/>
      <point x="2056" y="279"/>
      <point x="2058" y="271" type="curve" smooth="yes"/>
      <point x="2060" y="263"/>
      <point x="2137" y="75"/>
      <point x="2138" y="70" type="curve"/>
      <point x="2162" y="13"/>
      <point x="2207" y="0"/>
      <point x="2253" y="0" type="curve" smooth="yes"/>
      <point x="2296" y="0"/>
      <point x="2328" y="34"/>
      <point x="2328" y="77" type="curve" smooth="yes"/>
      <point x="2328" y="700" type="line" smooth="yes"/>
      <point x="2328" y="743"/>
      <point x="2294" y="777"/>
      <point x="2251" y="777" type="curve" smooth="yes"/>
      <point x="1465" y="777" type="line" smooth="yes"/>
      <point x="1422" y="777"/>
      <point x="1388" y="744"/>
      <point x="1388" y="701" type="curve" smooth="yes"/>
      <point x="1388" y="632" type="line" smooth="yes"/>
      <point x="1388" y="589"/>
      <point x="1422" y="556"/>
      <point x="1465" y="556" type="curve" smooth="yes"/>
      <point x="1717" y="556" type="line" smooth="yes"/>
      <point x="1730" y="556"/>
      <point x="1741" y="541"/>
      <point x="1741" y="527" type="curve" smooth="yes"/>
      <point x="1741" y="488"/>
      <point x="1655" y="318"/>
      <point x="1306" y="318" type="curve" smooth="yes"/>
      <point x="1043" y="318"/>
      <point x="864" y="430"/>
      <point x="864" y="719" type="curve" smooth="yes"/>
      <point x="864" y="1010"/>
      <point x="1049" y="1118"/>
      <point x="1320" y="1123" type="curve"/>
      <point x="1537" y="1123"/>
      <point x="1663" y="1064"/>
      <point x="1728" y="976" type="curve" smooth="yes"/>
      <point x="1758" y="936"/>
      <point x="1785" y="915"/>
      <point x="1837" y="915" type="curve" smooth="yes"/>
      <point x="1844" y="915"/>
      <point x="1873" y="919"/>
      <point x="2309" y="950" type="curve" smooth="yes"/>
      <point x="2316" y="951"/>
      <point x="2323" y="956"/>
      <point x="2323" y="963" type="curve" smooth="yes"/>
      <point x="2323" y="971"/>
      <point x="2322" y="980"/>
      <point x="2321" y="989" type="curve" smooth="yes"/>
      <point x="2265" y="1368"/>
      <point x="1759" y="1475"/>
      <point x="1320" y="1475" type="curve" smooth="yes"/>
      <point x="741" y="1475"/>
      <point x="135" y="1325"/>
      <point x="135" y="719" type="curve" smooth="yes"/>
      <point x="135" y="151"/>
      <point x="677" y="-41"/>
    </contour>
  </outline>
</glyph>
<glyph name="I" format="1">
  <advance width="1001"/>
  <unicode hex="0049"/>
  <outline>
    <contour>
      <point x="235" y="0" type="curve" smooth="yes"/>
      <point x="766" y="0" type="line" smooth="yes"/>
      <point x="809" y="0"/>
      <point x="841" y="33"/>
      <point x="841" y="76" type="curve" smooth="yes"/>
      <point x="841" y="1363" type="line" smooth="yes"/>
      <point x="841" y="1406"/>
      <point x="809" y="1438"/>
      <point x="766" y="1438" type="curve" smooth="yes"/>
      <point x="235" y="1438" type="line" smooth="yes"/>
      <point x="192" y="1438"/>
      <point x="159" y="1406"/>
      <point x="159" y="1363" type="curve" smooth="yes"/>
      <point x="159" y="76" type="line" smooth="yes"/>
      <point x="159" y="33"/>
      <point x="192" y="0"/>
    </contour>
  </outline>
</glyph>
<glyph name="S" format="1">
  <advance width="2427"/>
  <unicode hex="0053"/>
  <outline>
    <contour>
      <point x="1182" y="-41" type="curve" smooth="yes"/>
      <point x="2002" y="-41"/>
      <point x="2293" y="101"/>
      <point x="2293" y="456" type="curve" smooth="yes"/>
      <point x="2293" y="851"/>
      <point x="1819" y="899"/>
      <point x="1370" y="926" type="curve" smooth="yes"/>
      <point x="961" y="950"/>
      <point x="858" y="964"/>
      <point x="858" y="1043" type="curve" smooth="yes"/>
      <point x="858" y="1115"/>
      <point x="1012" y="1132"/>
      <point x="1194" y="1132" type="curve" smooth="yes"/>
      <point x="1372" y="1132"/>
      <point x="1692" y="1108"/>
      <point x="1955" y="1024" type="curve"/>
      <point x="1963.19" y="1021.86"/>
      <point x="1971.17" y="1020.87"/>
      <point x="1978.84" y="1020.87" type="curve" smooth="yes"/>
      <point x="2014.23" y="1020.87"/>
      <point x="2043.21" y="1042.06"/>
      <point x="2058" y="1070" type="curve" smooth="yes"/>
      <point x="2058" y="1072"/>
      <point x="2139" y="1238"/>
      <point x="2139" y="1239" type="curve" smooth="yes"/>
      <point x="2142.62" y="1247.21"/>
      <point x="2144.32" y="1256"/>
      <point x="2144.32" y="1264.81" type="curve" smooth="yes"/>
      <point x="2144.32" y="1292.49"/>
      <point x="2127.55" y="1320.38"/>
      <point x="2101" y="1331" type="curve" smooth="yes"/>
      <point x="1845" y="1431"/>
      <point x="1536" y="1475"/>
      <point x="1145" y="1475" type="curve" smooth="yes"/>
      <point x="646" y="1475"/>
      <point x="151" y="1427"/>
      <point x="151" y="989" type="curve" smooth="yes"/>
      <point x="151" y="539"/>
      <point x="772" y="539"/>
      <point x="1347" y="504" type="curve" smooth="yes"/>
      <point x="1478" y="497"/>
      <point x="1550" y="468"/>
      <point x="1550" y="394" type="curve" smooth="yes"/>
      <point x="1550" y="328"/>
      <point x="1458" y="301"/>
      <point x="1301" y="301" type="curve" smooth="yes"/>
      <point x="906" y="301"/>
      <point x="629" y="346"/>
      <point x="344" y="429" type="curve" smooth="yes"/>
      <point x="336.212" y="431.09"/>
      <point x="328.424" y="432.097"/>
      <point x="320.794" y="432.097" type="curve" smooth="yes"/>
      <point x="288.254" y="432.097"/>
      <point x="258.581" y="413.782"/>
      <point x="244" y="383" type="curve" smooth="yes"/>
      <point x="244" y="383"/>
      <point x="157" y="197"/>
      <point x="157" y="196" type="curve" smooth="yes"/>
      <point x="153.775" y="187.937"/>
      <point x="152.248" y="179.397"/>
      <point x="152.248" y="170.881" type="curve" smooth="yes"/>
      <point x="152.248" y="142.427"/>
      <point x="169.293" y="114.236"/>
      <point x="197" y="105" type="curve" smooth="yes"/>
      <point x="518" y="-11"/>
      <point x="847" y="-41"/>
    </contour>
  </outline>
</glyph>
<glyph name="V" format="1">
  <advance width="2340"/>
  <unicode hex="0056"/>
  <outline>
    <contour>
      <point x="915" y="0" type="curve" smooth="yes"/>
      <point x="1446" y="0" type="line" smooth="yes"/>
      <point x="1492" y="1"/>
      <point x="1535" y="27"/>
      <point x="1556" y="67" type="curve" smooth="yes"/>
      <point x="2260" y="1371" type="line" smooth="yes"/>
      <point x="2264.1" y="1378.72"/>
      <point x="2265.99" y="1386.62"/>
      <point x="2265.99" y="1394.16" type="curve" smooth="yes"/>
      <point x="2265.99" y="1417.85"/>
      <point x="2247.31" y="1438"/>
      <point x="2220" y="1438" type="curve" smooth="yes"/>
      <point x="1757" y="1438" type="line" smooth="yes"/>
      <point x="1711" y="1438"/>
      <point x="1667" y="1412"/>
      <point x="1645" y="1371" type="curve" smooth="yes"/>
      <point x="1208" y="550" type="line"/>
      <point x="765" y="1371" type="line" smooth="yes"/>
      <point x="742" y="1412"/>
      <point x="699" y="1438"/>
      <point x="653" y="1438" type="curve" smooth="yes"/>
      <point x="117" y="1438" type="line" smooth="yes"/>
      <point x="90.2081" y="1438"/>
      <point x="72.278" y="1418.61"/>
      <point x="72.278" y="1395.51" type="curve" smooth="yes"/>
      <point x="72.278" y="1387.57"/>
      <point x="74.396" y="1379.18"/>
      <point x="79" y="1371" type="curve" smooth="yes"/>
      <point x="803" y="67" type="line" smooth="yes"/>
      <point x="825" y="27"/>
      <point x="869" y="1"/>
    </contour>
  </outline>
</glyph>
<glyph name="W" format="1">
  <advance width="3328"/>
  <unicode hex="0057"/>
  <outline>
    <contour>
      <point x="776" y="0" type="curve" smooth="yes"/>
      <point x="1263" y="0" type="line" smooth="yes"/>
      <point x="1305.11" y="0"/>
      <point x="1344" y="30"/>
      <point x="1362" y="70" type="curve" smooth="yes"/>
      <point x="1657" y="723" type="line"/>
      <point x="1936" y="70" type="line" smooth="yes"/>
      <point x="1954" y="28"/>
      <point x="1995" y="1"/>
      <point x="2040" y="0" type="curve" smooth="yes"/>
      <point x="2556" y="0" type="line" smooth="yes"/>
      <point x="2601" y="1"/>
      <point x="2642" y="28"/>
      <point x="2660" y="70" type="curve" smooth="yes"/>
      <point x="3223" y="1369" type="line" smooth="yes"/>
      <point x="3226.24" y="1376.34"/>
      <point x="3227.75" y="1383.73"/>
      <point x="3227.75" y="1390.8" type="curve" smooth="yes"/>
      <point x="3227.75" y="1416.48"/>
      <point x="3207.79" y="1438"/>
      <point x="3178" y="1438" type="curve" smooth="yes"/>
      <point x="2732" y="1438" type="line" smooth="yes"/>
      <point x="2686" y="1438"/>
      <point x="2644" y="1411"/>
      <point x="2626" y="1369" type="curve" smooth="yes"/>
      <point x="2321" y="656" type="line"/>
      <point x="2008" y="1368" type="line" smooth="yes"/>
      <point x="1991" y="1408"/>
      <point x="1952" y="1436"/>
      <point x="1909" y="1438" type="curve"/>
      <point x="1491" y="1438" type="line" smooth="yes"/>
      <point x="1446" y="1438"/>
      <point x="1403" y="1411"/>
      <point x="1384" y="1369" type="curve" smooth="yes"/>
      <point x="1068" y="666" type="line"/>
      <point x="783" y="1367" type="line" smooth="yes"/>
      <point x="765" y="1410"/>
      <point x="724" y="1438"/>
      <point x="678" y="1438" type="curve" smooth="yes"/>
      <point x="144" y="1438" type="line" smooth="yes"/>
      <point x="114.206" y="1438"/>
      <point x="94.2472" y="1416.48"/>
      <point x="94.2472" y="1390.8" type="curve" smooth="yes"/>
      <point x="94.2472" y="1383.73"/>
      <point x="95.761" y="1376.34"/>
      <point x="99" y="1369" type="curve" smooth="yes"/>
      <point x="670" y="70" type="line" smooth="yes"/>
      <point x="689" y="28"/>
      <point x="731" y="1"/>
    </contour>
  </outline>
</glyph>
<glyph name="grave" format="1">
  <advance width="1745"/>
  <unicode hex="0060"/>
  <outline>
    <contour>
      <point x="893.5" y="1172" type="curve" smooth="yes"/>
      <point x="1025.5" y="1172" type="line"/>
      <point x="1026.96" y="1171.96"/>
      <point x="1028.37" y="1171.93"/>
      <point x="1029.74" y="1171.93" type="curve" smooth="yes"/>
      <point x="1052.37" y="1171.93"/>
      <point x="1064.03" y="1178.07"/>
      <point x="1064.03" y="1201.55" type="curve" smooth="yes"/>
      <point x="1064.03" y="1209.96"/>
      <point x="1062.53" y="1220.61"/>
      <point x="1059.5" y="1234" type="curve"/>
      <point x="998.5" y="1563" type="line" smooth="yes"/>
      <point x="990.5" y="1601"/>
      <point x="974.5" y="1614"/>
      <point x="935.5" y="1615" type="curve"/>
      <point x="933.5" y="1618"/>
      <point x="694.5" y="1618"/>
      <point x="691.5" y="1618" type="curve" smooth="yes"/>
      <point x="674.5" y="1618"/>
      <point x="642.5" y="1608"/>
      <point x="642.5" y="1594" type="curve"/>
      <point x="640.247" y="1591.1"/>
      <point x="639.237" y="1587.69"/>
      <point x="639.237" y="1583.85" type="curve" smooth="yes"/>
      <point x="639.237" y="1575.78"/>
      <point x="643.719" y="1565.85"/>
      <point x="650.5" y="1555" type="curve"/>
      <point x="837.5" y="1211" type="line"/>
      <point x="847.5" y="1195"/>
      <point x="856.5" y="1172"/>
    </contour>
  </outline>
</glyph>
<glyph name="b" format="1">
  <advance width="2036"/>
  <unicode hex="0062"/>
  <outline>
    <contour>
      <point x="1023" y="231" type="curve" smooth="yes"/>
      <point x="819" y="231"/>
      <point x="705" y="361"/>
      <point x="705" y="513" type="curve" smooth="yes"/>
      <point x="705" y="664"/>
      <point x="821" y="794"/>
      <point x="1025" y="794" type="curve" smooth="yes"/>
      <point x="1218" y="794"/>
      <point x="1333" y="667"/>
      <point x="1333" y="513" type="curve" smooth="yes"/>
      <point x="1333" y="362"/>
      <point x="1221" y="231"/>
    </contour>
    <contour>
      <point x="1165" y="-41" type="curve" smooth="yes"/>
      <point x="1529" y="-41"/>
      <point x="1905" y="129"/>
      <point x="1905" y="499" type="curve" smooth="yes"/>
      <point x="1905" y="889"/>
      <point x="1538" y="1053"/>
      <point x="1197" y="1053" type="curve" smooth="yes"/>
      <point x="1016" y="1053"/>
      <point x="842" y="1005"/>
      <point x="731" y="916" type="curve" smooth="yes"/>
      <point x="727" y="913"/>
      <point x="724" y="912"/>
      <point x="721" y="912" type="curve" smooth="yes"/>
      <point x="712" y="912"/>
      <point x="705" y="919"/>
      <point x="705" y="929" type="curve" smooth="yes"/>
      <point x="705" y="1360" type="line" smooth="yes"/>
      <point x="705" y="1403"/>
      <point x="673" y="1436"/>
      <point x="630" y="1436" type="curve" smooth="yes"/>
      <point x="235" y="1436" type="line" smooth="yes"/>
      <point x="192" y="1436"/>
      <point x="159" y="1403"/>
      <point x="159" y="1360" type="curve" smooth="yes"/>
      <point x="159" y="67" type="line" smooth="yes"/>
      <point x="159" y="24"/>
      <point x="175" y="0"/>
      <point x="218" y="0" type="curve" smooth="yes"/>
      <point x="320" y="0" type="line" smooth="yes"/>
      <point x="365" y="0"/>
      <point x="384" y="29"/>
      <point x="410" y="75" type="curve"/>
      <point x="453" y="141"/>
      <point x="476" y="179"/>
      <point x="489" y="201" type="curve" smooth="yes"/>
      <point x="494" y="209"/>
      <point x="500" y="213"/>
      <point x="506" y="213" type="curve" smooth="yes"/>
      <point x="512" y="213"/>
      <point x="518" y="210"/>
      <point x="522" y="205" type="curve" smooth="yes"/>
      <point x="657" y="42"/>
      <point x="913" y="-41"/>
    </contour>
  </outline>
</glyph>
<glyph name="h" format="1">
  <advance width="2022"/>
  <unicode hex="0068"/>
  <outline>
    <contour>
      <point x="235" y="0" type="curve" smooth="yes"/>
      <point x="633" y="0" type="line" smooth="yes"/>
      <point x="676" y="0"/>
      <point x="709" y="33"/>
      <point x="709" y="76" type="curve" smooth="yes"/>
      <point x="709" y="513" type="line" smooth="yes"/>
      <point x="709" y="646"/>
      <point x="829" y="781"/>
      <point x="1026" y="781" type="curve" smooth="yes"/>
      <point x="1212" y="781"/>
      <point x="1316" y="658"/>
      <point x="1316" y="513" type="curve" smooth="yes"/>
      <point x="1316" y="76" type="line" smooth="yes"/>
      <point x="1316" y="33"/>
      <point x="1348" y="0"/>
      <point x="1391" y="0" type="curve" smooth="yes"/>
      <point x="1804" y="0" type="line" smooth="yes"/>
      <point x="1847" y="0"/>
      <point x="1879" y="33"/>
      <point x="1879" y="76" type="curve" smooth="yes"/>
      <point x="1879" y="518" type="line" smooth="yes"/>
      <point x="1879" y="868"/>
      <point x="1561" y="1053"/>
      <point x="1213" y="1053" type="curve" smooth="yes"/>
      <point x="1040" y="1053"/>
      <point x="868" y="1006"/>
      <point x="736" y="909" type="curve" smooth="yes"/>
      <point x="732.571" y="906.714"/>
      <point x="728.898" y="905.653"/>
      <point x="725.399" y="905.653" type="curve" smooth="yes"/>
      <point x="716.653" y="905.653"/>
      <point x="709" y="912.286"/>
      <point x="709" y="923" type="curve" smooth="yes"/>
      <point x="709" y="1362" type="line" smooth="yes"/>
      <point x="709" y="1405"/>
      <point x="676" y="1438"/>
      <point x="633" y="1438" type="curve" smooth="yes"/>
      <point x="235" y="1438" type="line" smooth="yes"/>
      <point x="192" y="1438"/>
      <point x="159" y="1405"/>
      <point x="159" y="1362" type="curve" smooth="yes"/>
      <point x="159" y="76" type="line" smooth="yes"/>
      <point x="159" y="33"/>
      <point x="192" y="0"/>
    </contour>
  </outline>
</glyph>
<glyph name="i" format="1">
  <advance width="869"/>
  <unicode hex="0069"/>
  <outline>
    <contour>
      <point x="236" y="1156" type="curve" smooth="yes"/>
      <point x="634" y="1156" type="line" smooth="yes"/>
      <point x="677" y="1156"/>
      <point x="709" y="1189"/>
      <point x="709" y="1232" type="curve" smooth="yes"/>
      <point x="709" y="1441" type="line" smooth="yes"/>
      <point x="709" y="1484"/>
      <point x="677" y="1516"/>
      <point x="634" y="1516" type="curve" smooth="yes"/>
      <point x="236" y="1516" type="line" smooth="yes"/>
      <point x="193" y="1516"/>
      <point x="160" y="1484"/>
      <point x="160" y="1441" type="curve" smooth="yes"/>
      <point x="160" y="1232" type="line" smooth="yes"/>
      <point x="160" y="1189"/>
      <point x="193" y="1156"/>
    </contour>
    <contour>
      <point x="236" y="0" type="curve" smooth="yes"/>
      <point x="634" y="0" type="line" smooth="yes"/>
      <point x="677" y="0"/>
      <point x="709" y="33"/>
      <point x="709" y="76" type="curve" smooth="yes"/>
      <point x="709" y="931" type="line" smooth="yes"/>
      <point x="709" y="974"/>
      <point x="677" y="1006"/>
      <point x="634" y="1006" type="curve" smooth="yes"/>
      <point x="236" y="1006" type="line" smooth="yes"/>
      <point x="193" y="1006"/>
      <point x="160" y="974"/>
      <point x="160" y="931" type="curve" smooth="yes"/>
      <point x="160" y="76" type="line" smooth="yes"/>
      <point x="160" y="33"/>
      <point x="193" y="0"/>
    </contour>
  </outline>
</glyph>
<glyph name="p" format="1">
  <advance width="2037"/>
  <unicode hex="0070"/>
  <outline>
    <contour>
      <point x="1023" y="213" type="curve" smooth="yes"/>
      <point x="818" y="213"/>
      <point x="702" y="344"/>
      <point x="702" y="498" type="curve" smooth="yes"/>
      <point x="702" y="649"/>
      <point x="816" y="781"/>
      <point x="1022" y="781" type="curve" smooth="yes"/>
      <point x="1218" y="781"/>
      <point x="1332" y="648"/>
      <point x="1332" y="498" type="curve" smooth="yes"/>
      <point x="1332" y="341"/>
      <point x="1216" y="213"/>
    </contour>
    <contour>
      <point x="223" y="-318" type="curve" smooth="yes"/>
      <point x="630" y="-318" type="line" smooth="yes"/>
      <point x="673" y="-318"/>
      <point x="702" y="-289"/>
      <point x="702" y="-246" type="curve" smooth="yes"/>
      <point x="702" y="61" type="line" smooth="yes"/>
      <point x="702" y="72"/>
      <point x="710" y="80"/>
      <point x="719" y="80" type="curve" smooth="yes"/>
      <point x="723" y="80"/>
      <point x="727" y="78"/>
      <point x="730" y="76" type="curve" smooth="yes"/>
      <point x="843" y="-3"/>
      <point x="1016" y="-41"/>
      <point x="1197" y="-41" type="curve" smooth="yes"/>
      <point x="1540" y="-41"/>
      <point x="1905" y="119"/>
      <point x="1905" y="511" type="curve" smooth="yes"/>
      <point x="1905" y="883"/>
      <point x="1531" y="1053"/>
      <point x="1163" y="1053" type="curve" smooth="yes"/>
      <point x="925" y="1053"/>
      <point x="683" y="971"/>
      <point x="555" y="809" type="curve" smooth="yes"/>
      <point x="549" y="803"/>
      <point x="541" y="792"/>
      <point x="535" y="792" type="curve" smooth="yes"/>
      <point x="526" y="792"/>
      <point x="520" y="803"/>
      <point x="515" y="811" type="curve" smooth="yes"/>
      <point x="513" y="816"/>
      <point x="439" y="926"/>
      <point x="437" y="932" type="curve"/>
      <point x="410" y="975"/>
      <point x="367" y="999"/>
      <point x="322" y="999" type="curve" smooth="yes"/>
      <point x="226" y="999" type="line" smooth="yes"/>
      <point x="183" y="999"/>
      <point x="153" y="967"/>
      <point x="153" y="924" type="curve" smooth="yes"/>
      <point x="153" y="-246" type="line" smooth="yes"/>
      <point x="153" y="-289"/>
      <point x="180" y="-318"/>
    </contour>
  </outline>
</glyph>
<glyph name="s" format="1">
  <advance width="1827"/>
  <unicode hex="0073"/>
  <outline>
    <contour>
      <point x="900" y="-41" type="curve" smooth="yes"/>
      <point x="1351" y="-41"/>
      <point x="1705" y="30"/>
      <point x="1705" y="307" type="curve" smooth="yes"/>
      <point x="1705" y="630"/>
      <point x="1318" y="642"/>
      <point x="998" y="662" type="curve" smooth="yes"/>
      <point x="734" y="678"/>
      <point x="609" y="677"/>
      <point x="609" y="733" type="curve" smooth="yes"/>
      <point x="609" y="775"/>
      <point x="673" y="803"/>
      <point x="918" y="803" type="curve" smooth="yes"/>
      <point x="1156" y="803"/>
      <point x="1298" y="782"/>
      <point x="1432" y="736" type="curve" smooth="yes"/>
      <point x="1442.37" y="732.625"/>
      <point x="1452.85" y="730.993"/>
      <point x="1463.06" y="730.993" type="curve" smooth="yes"/>
      <point x="1495.19" y="730.993"/>
      <point x="1524.58" y="747.161"/>
      <point x="1539" y="776" type="curve" smooth="yes"/>
      <point x="1584" y="870" type="line" smooth="yes"/>
      <point x="1588.42" y="878.849"/>
      <point x="1590.48" y="888.512"/>
      <point x="1590.48" y="898.211" type="curve" smooth="yes"/>
      <point x="1590.48" y="925.778"/>
      <point x="1573.89" y="953.644"/>
      <point x="1548" y="964" type="curve" smooth="yes"/>
      <point x="1335" y="1047"/>
      <point x="1121" y="1053"/>
      <point x="881" y="1053" type="curve" smooth="yes"/>
      <point x="633" y="1053"/>
      <point x="148" y="1020"/>
      <point x="148" y="703" type="curve" smooth="yes"/>
      <point x="148" y="432"/>
      <point x="573" y="408"/>
      <point x="883" y="387" type="curve" smooth="yes"/>
      <point x="1168" y="368"/>
      <point x="1217" y="362"/>
      <point x="1217" y="294" type="curve" smooth="yes"/>
      <point x="1217" y="239"/>
      <point x="1152" y="218"/>
      <point x="993" y="218" type="curve" smooth="yes"/>
      <point x="747" y="218"/>
      <point x="531" y="240"/>
      <point x="316" y="306" type="curve" smooth="yes"/>
      <point x="306.969" y="308.73"/>
      <point x="297.983" y="310.049"/>
      <point x="289.235" y="310.049" type="curve" smooth="yes"/>
      <point x="256.329" y="310.049"/>
      <point x="226.8" y="291.389"/>
      <point x="211" y="259" type="curve" smooth="yes"/>
      <point x="158" y="154" type="line"/>
      <point x="154.471" y="146.002"/>
      <point x="152.824" y="137.229"/>
      <point x="152.824" y="128.32" type="curve" smooth="yes"/>
      <point x="152.824" y="99.3541"/>
      <point x="170.233" y="68.9419"/>
      <point x="197" y="59" type="curve" smooth="yes"/>
      <point x="397" y="-18"/>
      <point x="697" y="-41"/>
    </contour>
  </outline>
</glyph>
<glyph name="x" format="1">
  <advance width="2191"/>
  <unicode hex="0078"/>
  <outline>
    <contour>
      <point x="184" y="0" type="curve" smooth="yes"/>
      <point x="681" y="0" type="line" smooth="yes"/>
      <point x="728" y="0"/>
      <point x="782" y="18"/>
      <point x="819" y="47" type="curve" smooth="yes"/>
      <point x="830" y="55"/>
      <point x="995" y="182"/>
      <point x="1022" y="204" type="curve" smooth="yes"/>
      <point x="1031" y="211"/>
      <point x="1041" y="214"/>
      <point x="1049" y="214" type="curve" smooth="yes"/>
      <point x="1059" y="214"/>
      <point x="1069" y="210"/>
      <point x="1077" y="203" type="curve" smooth="yes"/>
      <point x="1104" y="181"/>
      <point x="1249" y="57"/>
      <point x="1258" y="50" type="curve" smooth="yes"/>
      <point x="1293" y="20"/>
      <point x="1346" y="0"/>
      <point x="1393" y="0" type="curve" smooth="yes"/>
      <point x="2041" y="0" type="line" smooth="yes"/>
      <point x="2058" y="0"/>
      <point x="2069" y="13"/>
      <point x="2069" y="27" type="curve" smooth="yes"/>
      <point x="2069" y="35"/>
      <point x="2066" y="43"/>
      <point x="2059" y="48" type="curve" smooth="yes"/>
      <point x="2027" y="74"/>
      <point x="1476" y="523"/>
      <point x="1453" y="542" type="curve" smooth="yes"/>
      <point x="1447" y="547"/>
      <point x="1443" y="555"/>
      <point x="1443" y="562" type="curve" smooth="yes"/>
      <point x="1443" y="571"/>
      <point x="1447" y="578"/>
      <point x="1454" y="583" type="curve" smooth="yes"/>
      <point x="1484" y="608"/>
      <point x="1935" y="943"/>
      <point x="1956" y="960" type="curve" smooth="yes"/>
      <point x="1964" y="966"/>
      <point x="1967" y="973"/>
      <point x="1967" y="981" type="curve" smooth="yes"/>
      <point x="1967" y="993"/>
      <point x="1957" y="1006"/>
      <point x="1941" y="1006" type="curve" smooth="yes"/>
      <point x="1477" y="1006" type="line" smooth="yes"/>
      <point x="1430" y="1006"/>
      <point x="1381" y="987"/>
      <point x="1344" y="958" type="curve" smooth="yes"/>
      <point x="1334" y="950"/>
      <point x="1196" y="838"/>
      <point x="1166" y="814" type="curve" smooth="yes"/>
      <point x="1159" y="809"/>
      <point x="1150" y="806"/>
      <point x="1141" y="806" type="curve" smooth="yes"/>
      <point x="1130" y="806"/>
      <point x="1122" y="809"/>
      <point x="1115" y="815" type="curve" smooth="yes"/>
      <point x="1084" y="840"/>
      <point x="957" y="948"/>
      <point x="946" y="956" type="curve"/>
      <point x="910" y="987"/>
      <point x="861" y="1006"/>
      <point x="814" y="1006" type="curve" smooth="yes"/>
      <point x="165" y="1006" type="line" smooth="yes"/>
      <point x="148" y="1006"/>
      <point x="137" y="993"/>
      <point x="137" y="979" type="curve" smooth="yes"/>
      <point x="137" y="971"/>
      <point x="140" y="963"/>
      <point x="147" y="958" type="curve" smooth="yes"/>
      <point x="159" y="948"/>
      <point x="679" y="525"/>
      <point x="714" y="497" type="curve" smooth="yes"/>
      <point x="721" y="492"/>
      <point x="724" y="483"/>
      <point x="724" y="476" type="curve" smooth="yes"/>
      <point x="724" y="468"/>
      <point x="721" y="461"/>
      <point x="713" y="456" type="curve"/>
      <point x="686" y="434"/>
      <point x="196" y="68"/>
      <point x="168" y="46" type="curve" smooth="yes"/>
      <point x="161" y="40"/>
      <point x="158" y="33"/>
      <point x="158" y="26" type="curve" smooth="yes"/>
      <point x="158" y="13"/>
      <point x="168" y="0"/>
    </contour>
  </outline>
</glyph>
<glyph name="z" format="1">
  <advance width="1665"/>
  <unicode hex="007A"/>
  <outline>
    <contour>
      <point x="190" y="0" type="curve" smooth="yes"/>
      <point x="1484" y="0" type="line" smooth="yes"/>
      <point x="1504" y="0"/>
      <point x="1521" y="17"/>
      <point x="1521" y="37" type="curve" smooth="yes"/>
      <point x="1521" y="220" type="line" smooth="yes"/>
      <point x="1521" y="240"/>
      <point x="1504" y="257"/>
      <point x="1484" y="257" type="curve" smooth="yes"/>
      <point x="884" y="257" type="line"/>
      <point x="1453" y="722" type="line" smooth="yes"/>
      <point x="1471" y="737"/>
      <point x="1482" y="760"/>
      <point x="1482" y="783" type="curve" smooth="yes"/>
      <point x="1482" y="969" type="line" smooth="yes"/>
      <point x="1482" y="989"/>
      <point x="1460" y="1006"/>
      <point x="1440" y="1006" type="curve" smooth="yes"/>
      <point x="190" y="1006" type="line" smooth="yes"/>
      <point x="170" y="1006"/>
      <point x="153" y="989"/>
      <point x="153" y="969" type="curve" smooth="yes"/>
      <point x="153" y="786" type="line" smooth="yes"/>
      <point x="153" y="766"/>
      <point x="170" y="749"/>
      <point x="190" y="749" type="curve" smooth="yes"/>
      <point x="766" y="749" type="line"/>
      <point x="178" y="280" type="line" smooth="yes"/>
      <point x="160" y="266"/>
      <point x="149" y="243"/>
      <point x="149" y="220" type="curve" smooth="yes"/>
      <point x="149" y="37" type="line" smooth="yes"/>
      <point x="149" y="17"/>
      <point x="170" y="0"/>
    </contour>
  </outline>
</glyph>
<glyph name="cent" format="1">
  <advance width="1765"/>
  <unicode hex="00A2"/>
  <outline>
    <contour>
      <point x="935" y="257" type="line"/>
      <point x="793" y="284"/>
      <point x="687" y="359"/>
      <point x="687" y="506" type="curve" smooth="yes"/>
      <point x="687" y="654"/>
      <point x="796" y="726"/>
      <point x="935" y="749" type="curve"/>
    </contour>
    <contour>
      <point x="1002" y="-204" type="curve" smooth="yes"/>
      <point x="1055" y="-204" type="line" smooth="yes"/>
      <point x="1098" y="-204"/>
      <point x="1122" y="-190"/>
      <point x="1122" y="-147" type="curve" smooth="yes"/>
      <point x="1122" y="-3" type="line"/>
      <point x="1282" y="8"/>
      <point x="1439" y="38"/>
      <point x="1563" y="77" type="curve"/>
      <point x="1594.17" y="85.7924"/>
      <point x="1612.57" y="113.113"/>
      <point x="1612.57" y="141.087" type="curve" smooth="yes"/>
      <point x="1612.57" y="148.111"/>
      <point x="1611.41" y="155.176"/>
      <point x="1609" y="162" type="curve" smooth="yes"/>
      <point x="1596" y="197"/>
      <point x="1583" y="233"/>
      <point x="1572" y="266" type="curve" smooth="yes"/>
      <point x="1561.79" y="294.265"/>
      <point x="1536.17" y="310.818"/>
      <point x="1505.79" y="310.818" type="curve" smooth="yes"/>
      <point x="1497.48" y="310.818"/>
      <point x="1488.81" y="309.578"/>
      <point x="1480" y="307" type="curve" smooth="yes"/>
      <point x="1387" y="280"/>
      <point x="1253" y="251"/>
      <point x="1122" y="245" type="curve"/>
      <point x="1122" y="756" type="line"/>
      <point x="1252" y="747"/>
      <point x="1377" y="715"/>
      <point x="1470" y="683" type="curve"/>
      <point x="1479.32" y="680.134"/>
      <point x="1488.63" y="678.694"/>
      <point x="1497.63" y="678.694" type="curve" smooth="yes"/>
      <point x="1526.32" y="678.694"/>
      <point x="1551.82" y="693.315"/>
      <point x="1564" y="723" type="curve" smooth="yes"/>
      <point x="1576" y="753"/>
      <point x="1592" y="794"/>
      <point x="1605" y="825" type="curve" smooth="yes"/>
      <point x="1608.05" y="832.403"/>
      <point x="1609.48" y="840.185"/>
      <point x="1609.48" y="847.985" type="curve" smooth="yes"/>
      <point x="1609.48" y="876.01"/>
      <point x="1590.94" y="904.266"/>
      <point x="1562" y="916" type="curve" smooth="yes"/>
      <point x="1443" y="963"/>
      <point x="1285" y="995"/>
      <point x="1122" y="1007" type="curve"/>
      <point x="1122" y="1214" type="line" smooth="yes"/>
      <point x="1122" y="1257"/>
      <point x="1098" y="1271"/>
      <point x="1055" y="1271" type="curve" smooth="yes"/>
      <point x="1002" y="1271" type="line" smooth="yes"/>
      <point x="959" y="1271"/>
      <point x="935" y="1257"/>
      <point x="935" y="1214" type="curve" smooth="yes"/>
      <point x="935" y="1012" type="line"/>
      <point x="535" y="1002"/>
      <point x="130" y="865"/>
      <point x="130" y="506" type="curve" smooth="yes"/>
      <point x="130" y="138"/>
      <point x="527" y="6"/>
      <point x="935" y="-5" type="curve"/>
      <point x="935" y="-147" type="line" smooth="yes"/>
      <point x="935" y="-190"/>
      <point x="959" y="-204"/>
    </contour>
  </outline>
</glyph>
<glyph name="section" format="1">
  <advance width="1860"/>
  <unicode hex="00A7"/>
  <outline>
    <contour>
      <point x="1302" y="639" type="curve"/>
      <point x="1212" y="651"/>
      <point x="1099" y="654"/>
      <point x="1006" y="662" type="curve" smooth="yes"/>
      <point x="625" y="692"/>
      <point x="557" y="707"/>
      <point x="557" y="760" type="curve" smooth="yes"/>
      <point x="557" y="806"/>
      <point x="586" y="837"/>
      <point x="592" y="844" type="curve"/>
      <point x="669" y="827"/>
      <point x="795" y="815"/>
      <point x="890" y="809" type="curve" smooth="yes"/>
      <point x="1175" y="790"/>
      <point x="1335" y="784"/>
      <point x="1335" y="716" type="curve" smooth="yes"/>
      <point x="1335" y="677"/>
      <point x="1302" y="639"/>
    </contour>
    <contour>
      <point x="907" y="-41" type="curve" smooth="yes"/>
      <point x="1358" y="-41"/>
      <point x="1712" y="31"/>
      <point x="1712" y="307" type="curve" smooth="yes"/>
      <point x="1712" y="407"/>
      <point x="1676" y="477"/>
      <point x="1615" y="526" type="curve"/>
      <point x="1675" y="577"/>
      <point x="1712" y="644"/>
      <point x="1712" y="729" type="curve" smooth="yes"/>
      <point x="1712" y="1052"/>
      <point x="1325" y="1064"/>
      <point x="1006" y="1084" type="curve" smooth="yes"/>
      <point x="741" y="1100"/>
      <point x="616" y="1099"/>
      <point x="616" y="1155" type="curve" smooth="yes"/>
      <point x="616" y="1197"/>
      <point x="680" y="1225"/>
      <point x="925" y="1225" type="curve" smooth="yes"/>
      <point x="1163" y="1225"/>
      <point x="1305" y="1204"/>
      <point x="1439" y="1158" type="curve" smooth="yes"/>
      <point x="1449.37" y="1154.62"/>
      <point x="1459.85" y="1152.99"/>
      <point x="1470.06" y="1152.99" type="curve" smooth="yes"/>
      <point x="1502.19" y="1152.99"/>
      <point x="1531.58" y="1169.16"/>
      <point x="1546" y="1198" type="curve" smooth="yes"/>
      <point x="1591" y="1292" type="line" smooth="yes"/>
      <point x="1595.51" y="1301.03"/>
      <point x="1597.63" y="1310.9"/>
      <point x="1597.63" y="1320.8" type="curve" smooth="yes"/>
      <point x="1597.63" y="1348.17"/>
      <point x="1581.44" y="1375.72"/>
      <point x="1555" y="1386" type="curve" smooth="yes"/>
      <point x="1342" y="1469"/>
      <point x="1128" y="1475"/>
      <point x="888" y="1475" type="curve" smooth="yes"/>
      <point x="640" y="1475"/>
      <point x="155" y="1443"/>
      <point x="155" y="1126" type="curve" smooth="yes"/>
      <point x="155" y="1035"/>
      <point x="203" y="971"/>
      <point x="279" y="926" type="curve"/>
      <point x="205" y="874"/>
      <point x="155" y="801"/>
      <point x="155" y="704" type="curve" smooth="yes"/>
      <point x="155" y="432"/>
      <point x="580" y="408"/>
      <point x="890" y="387" type="curve" smooth="yes"/>
      <point x="1175" y="368"/>
      <point x="1224" y="362"/>
      <point x="1224" y="294" type="curve" smooth="yes"/>
      <point x="1224" y="239"/>
      <point x="1159" y="218"/>
      <point x="1000" y="218" type="curve" smooth="yes"/>
      <point x="754" y="218"/>
      <point x="538" y="240"/>
      <point x="323" y="306" type="curve"/>
      <point x="313.983" y="309.006"/>
      <point x="304.92" y="310.444"/>
      <point x="296.048" y="310.444" type="curve" smooth="yes"/>
      <point x="263.596" y="310.444"/>
      <point x="233.706" y="291.198"/>
      <point x="218" y="259" type="curve" smooth="yes"/>
      <point x="166" y="154" type="line" smooth="yes"/>
      <point x="162.083" y="145.675"/>
      <point x="160.263" y="136.511"/>
      <point x="160.263" y="127.227" type="curve" smooth="yes"/>
      <point x="160.263" y="98.5933"/>
      <point x="177.57" y="68.817"/>
      <point x="204" y="59" type="curve" smooth="yes"/>
      <point x="404" y="-18"/>
      <point x="704" y="-41"/>
    </contour>
  </outline>
</glyph>
<glyph name="copyright" format="1">
  <advance width="1906"/>
  <unicode hex="00A9"/>
  <outline>
    <contour>
      <point x="952" y="-41" type="curve" smooth="yes"/>
      <point x="1496" y="-41"/>
      <point x="1768" y="318"/>
      <point x="1768" y="717" type="curve" smooth="yes"/>
      <point x="1768" y="1116"/>
      <point x="1496" y="1475"/>
      <point x="952" y="1475" type="curve" smooth="yes"/>
      <point x="408" y="1475"/>
      <point x="136" y="1116"/>
      <point x="136" y="717" type="curve" smooth="yes"/>
      <point x="136" y="318"/>
      <point x="408" y="-41"/>
    </contour>
    <contour>
      <point x="955" y="124" type="curve" smooth="yes"/>
      <point x="505" y="124"/>
      <point x="337" y="440"/>
      <point x="337" y="713" type="curve" smooth="yes"/>
      <point x="337" y="998"/>
      <point x="505" y="1307"/>
      <point x="955" y="1307" type="curve" smooth="yes"/>
      <point x="1404" y="1307"/>
      <point x="1572" y="998"/>
      <point x="1572" y="713" type="curve" smooth="yes"/>
      <point x="1572" y="440"/>
      <point x="1404" y="124"/>
    </contour>
    <contour>
      <point x="990" y="330" type="curve" smooth="yes"/>
      <point x="1104" y="330"/>
      <point x="1221" y="356"/>
      <point x="1308" y="394" type="curve" smooth="yes"/>
      <point x="1323.73" y="401.077"/>
      <point x="1334.51" y="422.374"/>
      <point x="1334.51" y="444.279" type="curve" smooth="yes"/>
      <point x="1334.51" y="450.232"/>
      <point x="1333.71" y="456.23"/>
      <point x="1332" y="462" type="curve"/>
      <point x="1326" y="491"/>
      <point x="1319" y="517"/>
      <point x="1311" y="546" type="curve"/>
      <point x="1306.22" y="568.303"/>
      <point x="1291.92" y="582.993"/>
      <point x="1275.69" y="582.993" type="curve" smooth="yes"/>
      <point x="1271.54" y="582.993"/>
      <point x="1267.27" y="582.035"/>
      <point x="1263" y="580" type="curve"/>
      <point x="1202" y="556"/>
      <point x="1117" y="535"/>
      <point x="1041" y="535" type="curve" smooth="yes"/>
      <point x="926" y="535"/>
      <point x="827" y="581"/>
      <point x="827" y="731" type="curve" smooth="yes"/>
      <point x="827" y="872"/>
      <point x="918" y="920"/>
      <point x="1027" y="920" type="curve" smooth="yes"/>
      <point x="1104" y="920"/>
      <point x="1191" y="893"/>
      <point x="1253" y="864" type="curve"/>
      <point x="1257.28" y="862.249"/>
      <point x="1261.6" y="861.406"/>
      <point x="1265.85" y="861.406" type="curve" smooth="yes"/>
      <point x="1283.42" y="861.406"/>
      <point x="1299.75" y="875.838"/>
      <point x="1307" y="900" type="curve"/>
      <point x="1312.54" y="928.311"/>
      <point x="1329.06" y="969.121"/>
      <point x="1329.06" y="1002.85" type="curve" smooth="yes"/>
      <point x="1329.06" y="1023.92"/>
      <point x="1322.61" y="1042.23"/>
      <point x="1303" y="1053" type="curve" smooth="yes"/>
      <point x="1220" y="1098"/>
      <point x="1101" y="1127"/>
      <point x="981" y="1127" type="curve" smooth="yes"/>
      <point x="757" y="1127"/>
      <point x="519" y="1022"/>
      <point x="519" y="731" type="curve" smooth="yes"/>
      <point x="519" y="432"/>
      <point x="752" y="330"/>
    </contour>
  </outline>
</glyph>
<glyph name="uni00AD" format="1">
  <advance width="1024"/>
  <unicode hex="00AD"/>
  <outline>
    <contour>
      <point x="177" y="449" type="curve"/>
      <point x="846" y="449" type="line"/>
      <point x="873.6" y="449"/>
      <point x="896" y="477.672"/>
      <point x="896" y="513" type="curve"/>
      <point x="896" y="648" type="line"/>
      <point x="896" y="681.672"/>
      <point x="873.6" y="709"/>
      <point x="846" y="709" type="curve"/>
      <point x="177" y="709" type="line"/>
      <point x="149.4" y="709"/>
      <point x="127" y="683.016"/>
      <point x="127" y="651" type="curve"/>
      <point x="127" y="519" type="line"/>
      <point x="127" y="480.36"/>
      <point x="149.4" y="449"/>
    </contour>
  </outline>
</glyph>
<glyph name="macron" format="1">
  <advance width="1067"/>
  <unicode hex="00AF"/>
  <outline>
    <contour>
      <point x="209" y="1242" type="curve" smooth="yes"/>
      <point x="861" y="1242" type="line" smooth="yes"/>
      <point x="904" y="1242"/>
      <point x="935" y="1275"/>
      <point x="935" y="1318" type="curve" smooth="yes"/>
      <point x="935" y="1410" type="line" smooth="yes"/>
      <point x="935" y="1453"/>
      <point x="904" y="1486"/>
      <point x="861" y="1486" type="curve" smooth="yes"/>
      <point x="209" y="1486" type="line" smooth="yes"/>
      <point x="166" y="1486"/>
      <point x="135" y="1453"/>
      <point x="135" y="1410" type="curve" smooth="yes"/>
      <point x="135" y="1318" type="line" smooth="yes"/>
      <point x="135" y="1275"/>
      <point x="166" y="1242"/>
    </contour>
  </outline>
</glyph>
<glyph name="acute" format="1">
  <advance width="1745"/>
  <unicode hex="00B4"/>
  <outline>
    <contour>
      <point x="809" y="1170" type="curve" smooth="yes"/>
      <point x="940" y="1170" type="line" smooth="yes"/>
      <point x="974" y="1170"/>
      <point x="983" y="1189"/>
      <point x="995" y="1209" type="curve" smooth="yes"/>
      <point x="1184" y="1553" type="line" smooth="yes"/>
      <point x="1191" y="1565"/>
      <point x="1196" y="1579"/>
      <point x="1196" y="1590" type="curve" smooth="yes"/>
      <point x="1196" y="1606"/>
      <point x="1188" y="1618"/>
      <point x="1168" y="1618" type="curve" smooth="yes"/>
      <point x="908" y="1618" type="line" smooth="yes"/>
      <point x="864" y="1618"/>
      <point x="846" y="1606"/>
      <point x="838" y="1563" type="curve" smooth="yes"/>
      <point x="775" y="1237" type="line"/>
      <point x="771.945" y="1223.39"/>
      <point x="770.278" y="1212.18"/>
      <point x="770.278" y="1203.07" type="curve" smooth="yes"/>
      <point x="770.278" y="1179.39"/>
      <point x="781.553" y="1170"/>
    </contour>
  </outline>
</glyph>
<glyph name="periodcentered" format="1">
  <advance width="625"/>
  <unicode hex="00B7"/>
  <outline>
    <contour>
      <point x="206" y="651" type="curve" smooth="yes"/>
      <point x="419" y="651" type="line" smooth="yes"/>
      <point x="462" y="651"/>
      <point x="496" y="685"/>
      <point x="496" y="728" type="curve" smooth="yes"/>
      <point x="496" y="916" type="line" smooth="yes"/>
      <point x="496" y="959"/>
      <point x="462" y="993"/>
      <point x="419" y="993" type="curve" smooth="yes"/>
      <point x="206" y="993" type="line" smooth="yes"/>
      <point x="163" y="993"/>
      <point x="129" y="959"/>
      <point x="129" y="916" type="curve" smooth="yes"/>
      <point x="129" y="728" type="line" smooth="yes"/>
      <point x="129" y="685"/>
      <point x="163" y="651"/>
    </contour>
  </outline>
</glyph>
<glyph name="ordmasculine" format="1">
  <advance width="1764"/>
  <unicode hex="00BA"/>
  <outline>
    <contour>
      <point x="882" y="545" type="curve" smooth="yes"/>
      <point x="1197" y="545"/>
      <point x="1620" y="593"/>
      <point x="1620" y="1011" type="curve" smooth="yes"/>
      <point x="1620" y="1422"/>
      <point x="1176" y="1474"/>
      <point x="882" y="1474" type="curve" smooth="yes"/>
      <point x="587" y="1474"/>
      <point x="143" y="1422"/>
      <point x="143" y="1011" type="curve" smooth="yes"/>
      <point x="143" y="593"/>
      <point x="566" y="545"/>
    </contour>
    <contour>
      <point x="882" y="762" type="curve" smooth="yes"/>
      <point x="711" y="762"/>
      <point x="608" y="841"/>
      <point x="608" y="1011" type="curve" smooth="yes"/>
      <point x="608" y="1158"/>
      <point x="709" y="1258"/>
      <point x="882" y="1258" type="curve" smooth="yes"/>
      <point x="1054" y="1258"/>
      <point x="1156" y="1158"/>
      <point x="1156" y="1011" type="curve" smooth="yes"/>
      <point x="1156" y="841"/>
      <point x="1051" y="762"/>
    </contour>
  </outline>
</glyph>
<glyph name="onehalf" format="1">
  <advance width="3666"/>
  <unicode hex="00BD"/>
  <outline>
    <contour>
      <point x="2144.74" y="0.69043" type="curve" smooth="yes"/>
      <point x="3226.34" y="0.69043" type="line" smooth="yes"/>
      <point x="3253.22" y="0.69043"/>
      <point x="3262.82" y="14.4902"/>
      <point x="3262.82" y="47.6104" type="curve" smooth="yes"/>
      <point x="3262.82" y="166.98" type="line" smooth="yes"/>
      <point x="3262.82" y="198.72"/>
      <point x="3248.1" y="211.14"/>
      <point x="3226.98" y="211.14" type="curve" smooth="yes"/>
      <point x="2569.7" y="211.14" type="line" smooth="yes"/>
      <point x="2546.66" y="211.14"/>
      <point x="2533.86" y="222.18"/>
      <point x="2533.86" y="241.5" type="curve" smooth="yes"/>
      <point x="2533.86" y="267.03"/>
      <point x="2542.18" y="271.17"/>
      <point x="2553.06" y="275.31" type="curve"/>
      <point x="2800.41" y="412.647"/>
      <point x="3291.53" y="302.627"/>
      <point x="3291.53" y="674.697" type="curve" smooth="yes"/>
      <point x="3291.53" y="976.288"/>
      <point x="3019.04" y="1018.44"/>
      <point x="2648.42" y="1018.44" type="curve" smooth="yes"/>
      <point x="2482.02" y="1017.75"/>
      <point x="2240.1" y="966.69"/>
      <point x="2146.66" y="921.84" type="curve" smooth="yes"/>
      <point x="2128.74" y="913.56"/>
      <point x="2122.34" y="899.76"/>
      <point x="2122.34" y="874.23" type="curve" smooth="yes"/>
      <point x="2122.34" y="871.47"/>
      <point x="2141.54" y="787.29"/>
      <point x="2164.58" y="741.06" type="curve"/>
      <point x="2167.78" y="726.57"/>
      <point x="2180.58" y="720.36"/>
      <point x="2202.98" y="720.36" type="curve" smooth="yes"/>
      <point x="2212.58" y="720.36"/>
      <point x="2221.54" y="723.12"/>
      <point x="2234.34" y="727.26" type="curve" smooth="yes"/>
      <point x="2250.34" y="732.78"/>
      <point x="2513.38" y="803.85"/>
      <point x="2718.18" y="803.85" type="curve" smooth="yes"/>
      <point x="2922.34" y="803.85"/>
      <point x="2935.78" y="762.45"/>
      <point x="2935.78" y="714.84" type="curve" smooth="yes"/>
      <point x="2935.78" y="536.82"/>
      <point x="2149.86" y="756.24"/>
      <point x="2087.14" y="142.83" type="curve" smooth="yes"/>
      <point x="2086.5" y="135.24"/>
      <point x="2079.46" y="71.0703"/>
      <point x="2079.46" y="64.1699" type="curve" smooth="yes"/>
      <point x="2079.46" y="25.5303"/>
      <point x="2103.78" y="0.69043"/>
    </contour>
    <contour>
      <point x="1204" y="-206" type="curve" smooth="yes"/>
      <point x="1223" y="-206"/>
      <point x="1261" y="-195"/>
      <point x="1270" y="-178" type="curve"/>
      <point x="1276" y="-178"/>
      <point x="2160" y="1620"/>
      <point x="2155" y="1620" type="curve"/>
      <point x="2160" y="1632"/>
      <point x="2140" y="1645"/>
      <point x="2115" y="1646" type="curve" smooth="yes"/>
      <point x="2102" y="1647"/>
      <point x="1856" y="1648"/>
      <point x="1855" y="1648" type="curve" smooth="yes"/>
      <point x="1836" y="1648"/>
      <point x="1799" y="1637"/>
      <point x="1790" y="1620" type="curve"/>
      <point x="1785" y="1620"/>
      <point x="899" y="-176"/>
      <point x="905" y="-176" type="curve"/>
      <point x="899" y="-188"/>
      <point x="919" y="-202"/>
      <point x="944" y="-203" type="curve" smooth="yes"/>
      <point x="957" y="-204"/>
      <point x="1203" y="-206"/>
    </contour>
    <contour>
      <point x="493" y="431" type="curve" smooth="yes"/>
      <point x="881" y="431" type="line" smooth="yes"/>
      <point x="911" y="431"/>
      <point x="934" y="454"/>
      <point x="934" y="484" type="curve" smooth="yes"/>
      <point x="934" y="1384" type="line" smooth="yes"/>
      <point x="934" y="1415"/>
      <point x="911" y="1437"/>
      <point x="881" y="1437" type="curve"/>
      <point x="266" y="1381" type="line"/>
      <point x="236" y="1381"/>
      <point x="213" y="1359"/>
      <point x="213" y="1329" type="curve" smooth="yes"/>
      <point x="213" y="1189" type="line" smooth="yes"/>
      <point x="213" y="1159"/>
      <point x="236" y="1136"/>
      <point x="266" y="1136" type="curve"/>
      <point x="414" y="1151" type="line"/>
      <point x="428" y="1151"/>
      <point x="440" y="1139"/>
      <point x="440" y="1125" type="curve" smooth="yes"/>
      <point x="440" y="484" type="line" smooth="yes"/>
      <point x="440" y="454"/>
      <point x="463" y="431"/>
    </contour>
  </outline>
</glyph>
<glyph name="multiply" format="1">
  <advance width="1190"/>
  <unicode hex="00D7"/>
  <outline>
    <contour>
      <point x="331" y="193" type="curve" smooth="yes"/>
      <point x="351" y="193"/>
      <point x="370" y="201"/>
      <point x="386" y="216" type="curve" smooth="yes"/>
      <point x="388" y="219"/>
      <point x="577" y="409"/>
      <point x="595" y="427" type="curve"/>
      <point x="615" y="408"/>
      <point x="806" y="218"/>
      <point x="807" y="217" type="curve" smooth="yes"/>
      <point x="822" y="202"/>
      <point x="842" y="195"/>
      <point x="861" y="195" type="curve" smooth="yes"/>
      <point x="881" y="195"/>
      <point x="901" y="202"/>
      <point x="916" y="217" type="curve" smooth="yes"/>
      <point x="1025" y="326" type="line" smooth="yes"/>
      <point x="1040" y="341"/>
      <point x="1047" y="361"/>
      <point x="1047" y="380" type="curve" smooth="yes"/>
      <point x="1047" y="400"/>
      <point x="1041" y="419"/>
      <point x="1024" y="435" type="curve" smooth="yes"/>
      <point x="814" y="646" type="line"/>
      <point x="833" y="666"/>
      <point x="1023" y="857"/>
      <point x="1024" y="858" type="curve" smooth="yes"/>
      <point x="1039" y="873"/>
      <point x="1047" y="893"/>
      <point x="1047" y="912" type="curve" smooth="yes"/>
      <point x="1047" y="932"/>
      <point x="1039" y="952"/>
      <point x="1024" y="967" type="curve" smooth="yes"/>
      <point x="915" y="1076" type="line" smooth="yes"/>
      <point x="900" y="1092"/>
      <point x="881" y="1099"/>
      <point x="861" y="1099" type="curve" smooth="yes"/>
      <point x="841" y="1099"/>
      <point x="822" y="1092"/>
      <point x="806" y="1076" type="curve" smooth="yes"/>
      <point x="805" y="1074"/>
      <point x="614" y="884"/>
      <point x="595" y="864" type="curve"/>
      <point x="576" y="883"/>
      <point x="385" y="1074"/>
      <point x="384" y="1074" type="curve" smooth="yes"/>
      <point x="369" y="1090"/>
      <point x="350" y="1097"/>
      <point x="330" y="1097" type="curve" smooth="yes"/>
      <point x="310" y="1097"/>
      <point x="291" y="1089"/>
      <point x="275" y="1074" type="curve" smooth="yes"/>
      <point x="165" y="964" type="line" smooth="yes"/>
      <point x="150" y="949"/>
      <point x="142" y="930"/>
      <point x="142" y="910" type="curve" smooth="yes"/>
      <point x="142" y="890"/>
      <point x="150" y="871"/>
      <point x="165" y="855" type="curve" smooth="yes"/>
      <point x="168" y="853"/>
      <point x="358" y="664"/>
      <point x="376" y="646" type="curve"/>
      <point x="358" y="627"/>
      <point x="167" y="436"/>
      <point x="166" y="435" type="curve" smooth="yes"/>
      <point x="151" y="420"/>
      <point x="144" y="401"/>
      <point x="144" y="381" type="curve" smooth="yes"/>
      <point x="144" y="361"/>
      <point x="151" y="342"/>
      <point x="166" y="326" type="curve" smooth="yes"/>
      <point x="277" y="216" type="line" smooth="yes"/>
      <point x="292" y="201"/>
      <point x="312" y="193"/>
    </contour>
  </outline>
</glyph>
<glyph name="Thorn" format="1">
  <advance width="2348"/>
  <unicode hex="00DE"/>
  <outline>
    <contour>
      <point x="861" y="614" type="line" smooth="yes"/>
      <point x="844" y="614"/>
      <point x="827" y="632"/>
      <point x="827" y="649" type="curve" smooth="yes"/>
      <point x="827" y="918" type="line" smooth="yes"/>
      <point x="827" y="935"/>
      <point x="844" y="952"/>
      <point x="861" y="952" type="curve" smooth="yes"/>
      <point x="1139" y="952" type="line" smooth="yes"/>
      <point x="1174.56" y="952"/>
      <point x="1213.35" y="953.301"/>
      <point x="1252.24" y="953.301" type="curve" smooth="yes"/>
      <point x="1390.5" y="953.301"/>
      <point x="1530" y="936.854"/>
      <point x="1530" y="787" type="curve" smooth="yes"/>
      <point x="1530" y="637"/>
      <point x="1403" y="614"/>
      <point x="1254" y="614" type="curve" smooth="yes"/>
    </contour>
    <contour>
      <point x="235" y="0" type="curve" smooth="yes"/>
      <point x="751" y="0" type="line" smooth="yes"/>
      <point x="794" y="0"/>
      <point x="827" y="33"/>
      <point x="827" y="76" type="curve" smooth="yes"/>
      <point x="827" y="290" type="line" smooth="yes"/>
      <point x="827" y="307"/>
      <point x="844" y="325"/>
      <point x="861" y="325" type="curve" smooth="yes"/>
      <point x="1001" y="327"/>
      <point x="1185" y="325"/>
      <point x="1314" y="327" type="curve" smooth="yes"/>
      <point x="1816" y="332"/>
      <point x="2215" y="380"/>
      <point x="2215" y="803" type="curve" smooth="yes"/>
      <point x="2215" y="1241"/>
      <point x="1832" y="1249"/>
      <point x="1298" y="1249" type="curve" smooth="yes"/>
      <point x="827" y="1249" type="line"/>
      <point x="827" y="1363" type="line" smooth="yes"/>
      <point x="827" y="1406"/>
      <point x="794" y="1438"/>
      <point x="751" y="1438" type="curve" smooth="yes"/>
      <point x="235" y="1438" type="line" smooth="yes"/>
      <point x="192" y="1438"/>
      <point x="159" y="1406"/>
      <point x="159" y="1363" type="curve" smooth="yes"/>
      <point x="159" y="76" type="line" smooth="yes"/>
      <point x="159" y="33"/>
      <point x="192" y="0"/>
    </contour>
  </outline>
</glyph>
<glyph name="ae" format="1">
  <advance width="3007"/>
  <unicode hex="00E6"/>
  <outline>
    <contour>
      <point x="1824" y="611" type="line" smooth="yes"/>
      <point x="1812" y="611"/>
      <point x="1813" y="628"/>
      <point x="1813" y="641" type="curve"/>
      <point x="1823" y="750"/>
      <point x="1949" y="835"/>
      <point x="2100" y="835" type="curve" smooth="yes"/>
      <point x="2267" y="835"/>
      <point x="2363" y="743"/>
      <point x="2378" y="636" type="curve"/>
      <point x="2378" y="624"/>
      <point x="2379" y="611"/>
      <point x="2367" y="611" type="curve" smooth="yes"/>
    </contour>
    <contour>
      <point x="842" y="174" type="curve" smooth="yes"/>
      <point x="734" y="174"/>
      <point x="681" y="210"/>
      <point x="681" y="271" type="curve" smooth="yes"/>
      <point x="681" y="369"/>
      <point x="887" y="414"/>
      <point x="1205" y="454" type="curve" smooth="yes"/>
      <point x="1210" y="455"/>
      <point x="1230" y="456"/>
      <point x="1233" y="456" type="curve" smooth="yes"/>
      <point x="1260" y="456"/>
      <point x="1261" y="438"/>
      <point x="1261" y="424" type="curve" smooth="yes"/>
      <point x="1261" y="289"/>
      <point x="1069" y="174"/>
    </contour>
    <contour>
      <point x="736" y="-41" type="curve" smooth="yes"/>
      <point x="1061" y="-41"/>
      <point x="1282" y="39"/>
      <point x="1419" y="176" type="curve"/>
      <point x="1428" y="169"/>
      <point x="1437" y="162"/>
      <point x="1446" y="156" type="curve"/>
      <point x="1626" y="8"/>
      <point x="1910" y="-41"/>
      <point x="2149" y="-41" type="curve" smooth="yes"/>
      <point x="2283" y="-41"/>
      <point x="2598" y="0"/>
      <point x="2749" y="49" type="curve" smooth="yes"/>
      <point x="2779.76" y="58.7125"/>
      <point x="2799.38" y="87.4224"/>
      <point x="2799.38" y="116.572" type="curve" smooth="yes"/>
      <point x="2799.38" y="123.438"/>
      <point x="2798.29" y="130.328"/>
      <point x="2796" y="137" type="curve" smooth="yes"/>
      <point x="2784" y="173"/>
      <point x="2778" y="197"/>
      <point x="2765" y="233" type="curve"/>
      <point x="2755.55" y="262.933"/>
      <point x="2729.34" y="281.077"/>
      <point x="2698.11" y="281.077" type="curve" smooth="yes"/>
      <point x="2689.7" y="281.077"/>
      <point x="2680.92" y="279.76"/>
      <point x="2672" y="277" type="curve" smooth="yes"/>
      <point x="2567" y="245"/>
      <point x="2404" y="209"/>
      <point x="2257" y="209" type="curve" smooth="yes"/>
      <point x="2057" y="209"/>
      <point x="1812" y="270"/>
      <point x="1812" y="426" type="curve" smooth="yes"/>
      <point x="1812" y="441"/>
      <point x="1820" y="454"/>
      <point x="1835" y="454" type="curve" smooth="yes"/>
      <point x="2821" y="454" type="line" smooth="yes"/>
      <point x="2870" y="454"/>
      <point x="2874" y="489"/>
      <point x="2874" y="533" type="curve" smooth="yes"/>
      <point x="2866" y="918"/>
      <point x="2457" y="1053"/>
      <point x="2091" y="1053" type="curve" smooth="yes"/>
      <point x="1901" y="1053"/>
      <point x="1684" y="1002"/>
      <point x="1520" y="906" type="curve"/>
      <point x="1398" y="1003"/>
      <point x="1211" y="1053"/>
      <point x="957" y="1053" type="curve" smooth="yes"/>
      <point x="483" y="1053"/>
      <point x="236" y="990"/>
      <point x="177" y="846" type="curve" smooth="yes"/>
      <point x="172" y="833"/>
      <point x="166" y="817"/>
      <point x="166" y="802" type="curve" smooth="yes"/>
      <point x="166" y="787"/>
      <point x="178" y="769"/>
      <point x="194" y="766" type="curve"/>
      <point x="578" y="731" type="line" smooth="yes"/>
      <point x="587" y="730"/>
      <point x="594" y="729"/>
      <point x="600" y="729" type="curve" smooth="yes"/>
      <point x="621" y="729"/>
      <point x="636" y="737"/>
      <point x="659" y="758" type="curve" smooth="yes"/>
      <point x="736" y="827"/>
      <point x="877" y="849"/>
      <point x="961" y="849" type="curve" smooth="yes"/>
      <point x="1181" y="849"/>
      <point x="1249" y="772"/>
      <point x="1249" y="661" type="curve" smooth="yes"/>
      <point x="1249" y="658"/>
      <point x="1248" y="644"/>
      <point x="1248" y="639" type="curve" smooth="yes"/>
      <point x="1248" y="596"/>
      <point x="139" y="650"/>
      <point x="139" y="238" type="curve" smooth="yes"/>
      <point x="139" y="62"/>
      <point x="374" y="-41"/>
    </contour>
  </outline>
</glyph>
<glyph name="thorn" format="1">
  <advance width="2044"/>
  <unicode hex="00FE"/>
  <outline>
    <contour>
      <point x="1031" y="213" type="curve" smooth="yes"/>
      <point x="825" y="213"/>
      <point x="710" y="347"/>
      <point x="710" y="498" type="curve" smooth="yes"/>
      <point x="710" y="650"/>
      <point x="823" y="781"/>
      <point x="1029" y="781" type="curve" smooth="yes"/>
      <point x="1225" y="781"/>
      <point x="1339" y="648"/>
      <point x="1339" y="498" type="curve" smooth="yes"/>
      <point x="1339" y="341"/>
      <point x="1223" y="213"/>
    </contour>
    <contour>
      <point x="231" y="-318" type="curve" smooth="yes"/>
      <point x="638" y="-318" type="line" smooth="yes"/>
      <point x="681" y="-318"/>
      <point x="711" y="-289"/>
      <point x="711" y="-246" type="curve" smooth="yes"/>
      <point x="711" y="62" type="line" smooth="yes"/>
      <point x="711" y="73"/>
      <point x="719" y="81"/>
      <point x="728" y="81" type="curve" smooth="yes"/>
      <point x="732" y="81"/>
      <point x="736" y="79"/>
      <point x="739" y="77" type="curve" smooth="yes"/>
      <point x="851" y="-2"/>
      <point x="1023" y="-41"/>
      <point x="1204" y="-41" type="curve" smooth="yes"/>
      <point x="1547" y="-41"/>
      <point x="1913" y="119"/>
      <point x="1913" y="511" type="curve" smooth="yes"/>
      <point x="1913" y="883"/>
      <point x="1538" y="1053"/>
      <point x="1170" y="1053" type="curve" smooth="yes"/>
      <point x="1005" y="1053"/>
      <point x="863" y="1012"/>
      <point x="734" y="931" type="curve" smooth="yes"/>
      <point x="728" y="927"/>
      <point x="725" y="926"/>
      <point x="721" y="926" type="curve" smooth="yes"/>
      <point x="710" y="926"/>
      <point x="708" y="943"/>
      <point x="708" y="975" type="curve" smooth="yes"/>
      <point x="708" y="1356" type="line" smooth="yes"/>
      <point x="708" y="1406"/>
      <point x="676" y="1438"/>
      <point x="632" y="1438" type="curve" smooth="yes"/>
      <point x="234" y="1438" type="line" smooth="yes"/>
      <point x="191" y="1438"/>
      <point x="160" y="1406"/>
      <point x="160" y="1363" type="curve" smooth="yes"/>
      <point x="160" y="-246" type="line" smooth="yes"/>
      <point x="160" y="-289"/>
      <point x="188" y="-318"/>
    </contour>
  </outline>
</glyph>
<glyph name="Lslash" format="1">
  <advance width="1997"/>
  <unicode hex="0141"/>
  <outline>
    <contour>
      <point x="235" y="0" type="curve" smooth="yes"/>
      <point x="1798" y="0" type="line" smooth="yes"/>
      <point x="1841" y="0"/>
      <point x="1874" y="33"/>
      <point x="1874" y="76" type="curve" smooth="yes"/>
      <point x="1874" y="274" type="line" smooth="yes"/>
      <point x="1874" y="317"/>
      <point x="1841" y="350"/>
      <point x="1798" y="350" type="curve" smooth="yes"/>
      <point x="902" y="350" type="line" smooth="yes"/>
      <point x="882" y="350"/>
      <point x="865" y="367"/>
      <point x="865" y="387" type="curve" smooth="yes"/>
      <point x="865" y="775" type="line"/>
      <point x="1075" y="816" type="line" smooth="yes"/>
      <point x="1111" y="823"/>
      <point x="1141" y="847"/>
      <point x="1141" y="885" type="curve" smooth="yes"/>
      <point x="1141" y="1028" type="line" smooth="yes"/>
      <point x="1141" y="1062.92"/>
      <point x="1115.67" y="1097.84"/>
      <point x="1083.62" y="1097.84" type="curve" smooth="yes"/>
      <point x="1080.8" y="1097.84"/>
      <point x="1077.92" y="1097.57"/>
      <point x="1075" y="1097" type="curve" smooth="yes"/>
      <point x="865" y="1056" type="line"/>
      <point x="865" y="1363" type="line" smooth="yes"/>
      <point x="865" y="1406"/>
      <point x="833" y="1438"/>
      <point x="790" y="1438" type="curve" smooth="yes"/>
      <point x="235" y="1438" type="line" smooth="yes"/>
      <point x="192" y="1438"/>
      <point x="159" y="1406"/>
      <point x="159" y="1363" type="curve" smooth="yes"/>
      <point x="159" y="921" type="line"/>
      <point x="66" y="903" type="line" smooth="yes"/>
      <point x="30" y="896"/>
      <point x="1" y="872"/>
      <point x="1" y="832" type="curve" smooth="yes"/>
      <point x="1" y="693" type="line" smooth="yes"/>
      <point x="1" y="656.236"/>
      <point x="25.4973" y="621.162"/>
      <point x="57.4114" y="621.162" type="curve" smooth="yes"/>
      <point x="60.2206" y="621.162"/>
      <point x="63.0874" y="621.434"/>
      <point x="66" y="622" type="curve" smooth="yes"/>
      <point x="159" y="640" type="line"/>
      <point x="159" y="76" type="line" smooth="yes"/>
      <point x="159" y="33"/>
      <point x="192" y="0"/>
    </contour>
  </outline>
</glyph>
<glyph name="Tbar" format="1">
  <advance width="2123"/>
  <unicode hex="0166"/>
  <outline>
    <contour>
      <point x="810" y="0" type="curve" smooth="yes"/>
      <point x="1311" y="0" type="line" smooth="yes"/>
      <point x="1354" y="0"/>
      <point x="1386" y="33"/>
      <point x="1386" y="76" type="curve" smooth="yes"/>
      <point x="1386" y="483" type="line"/>
      <point x="1729" y="483" type="line" smooth="yes"/>
      <point x="1772" y="483"/>
      <point x="1803" y="516"/>
      <point x="1803" y="559" type="curve" smooth="yes"/>
      <point x="1803" y="684" type="line" smooth="yes"/>
      <point x="1803" y="727"/>
      <point x="1772" y="760"/>
      <point x="1729" y="760" type="curve" smooth="yes"/>
      <point x="1386" y="760" type="line"/>
      <point x="1386" y="1069" type="line" smooth="yes"/>
      <point x="1386" y="1089"/>
      <point x="1402" y="1104"/>
      <point x="1422" y="1104" type="curve" smooth="yes"/>
      <point x="1939" y="1104" type="line" smooth="yes"/>
      <point x="1982" y="1104"/>
      <point x="2015" y="1138"/>
      <point x="2015" y="1181" type="curve" smooth="yes"/>
      <point x="2015" y="1361" type="line" smooth="yes"/>
      <point x="2015" y="1404"/>
      <point x="1982" y="1438"/>
      <point x="1939" y="1438" type="curve" smooth="yes"/>
      <point x="178" y="1438" type="line" smooth="yes"/>
      <point x="135" y="1438"/>
      <point x="103" y="1404"/>
      <point x="103" y="1361" type="curve" smooth="yes"/>
      <point x="103" y="1181" type="line" smooth="yes"/>
      <point x="103" y="1138"/>
      <point x="135" y="1104"/>
      <point x="178" y="1104" type="curve" smooth="yes"/>
      <point x="699" y="1104" type="line" smooth="yes"/>
      <point x="719" y="1104"/>
      <point x="734" y="1089"/>
      <point x="734" y="1069" type="curve" smooth="yes"/>
      <point x="734" y="760" type="line"/>
      <point x="398" y="760" type="line" smooth="yes"/>
      <point x="355" y="760"/>
      <point x="324" y="727"/>
      <point x="324" y="684" type="curve" smooth="yes"/>
      <point x="324" y="559" type="line" smooth="yes"/>
      <point x="324" y="516"/>
      <point x="355" y="483"/>
      <point x="398" y="483" type="curve" smooth="yes"/>
      <point x="734" y="483" type="line"/>
      <point x="734" y="76" type="line" smooth="yes"/>
      <point x="734" y="33"/>
      <point x="767" y="0"/>
    </contour>
  </outline>
</glyph>
<glyph name="breve" format="1">
  <advance width="1366"/>
  <unicode hex="02D8"/>
  <outline>
    <contour>
      <point x="671" y="1192" type="curve" smooth="yes"/>
      <point x="836" y="1192"/>
      <point x="1046" y="1223"/>
      <point x="1049" y="1505" type="curve"/>
      <point x="799" y="1505" type="line"/>
      <point x="797" y="1399"/>
      <point x="751" y="1351"/>
      <point x="671" y="1351" type="curve" smooth="yes"/>
      <point x="590" y="1351"/>
      <point x="543" y="1400"/>
      <point x="541" y="1505" type="curve"/>
      <point x="291" y="1505" type="line"/>
      <point x="294" y="1223"/>
      <point x="505" y="1192"/>
    </contour>
  </outline>
</glyph>
<glyph name="ring" format="1">
  <advance width="1717"/>
  <unicode hex="02DA"/>
  <outline>
    <contour>
      <point x="860" y="1638.4" type="curve" smooth="yes"/>
      <point x="980" y="1638.4"/>
      <point x="1143" y="1709.4"/>
      <point x="1143" y="1900.4" type="curve" smooth="yes"/>
      <point x="1143" y="2096.4"/>
      <point x="993" y="2162.4"/>
      <point x="860" y="2162.4" type="curve" smooth="yes"/>
      <point x="724" y="2162.4"/>
      <point x="573" y="2096.4"/>
      <point x="573" y="1900.4" type="curve" smooth="yes"/>
      <point x="573" y="1708.4"/>
      <point x="736" y="1638.4"/>
    </contour>
    <contour>
      <point x="859" y="1753.4" type="curve" smooth="yes"/>
      <point x="775" y="1753.4"/>
      <point x="706" y="1802.4"/>
      <point x="708" y="1900.4" type="curve"/>
      <point x="706" y="2005.4"/>
      <point x="780" y="2046.4"/>
      <point x="859" y="2046.4" type="curve" smooth="yes"/>
      <point x="935" y="2046.4"/>
      <point x="1009" y="2005.4"/>
      <point x="1009" y="1900.4" type="curve" smooth="yes"/>
      <point x="1009" y="1801.4"/>
      <point x="939" y="1753.4"/>
    </contour>
  </outline>
</glyph>
<glyph name="ogonek" format="1">
  <advance width="716"/>
  <unicode hex="02DB"/>
  <outline>
    <contour>
      <point x="413" y="-371" type="curve" smooth="yes"/>
      <point x="479" y="-371" type="line" smooth="yes"/>
      <point x="492" y="-371"/>
      <point x="495" y="-364"/>
      <point x="495" y="-354" type="curve" smooth="yes"/>
      <point x="495" y="-283" type="line" smooth="yes"/>
      <point x="495" y="-272"/>
      <point x="479" y="-273"/>
      <point x="479" y="-273" type="curve"/>
      <point x="460" y="-273" type="line" smooth="yes"/>
      <point x="371" y="-273"/>
      <point x="359" y="-196"/>
      <point x="359" y="-120" type="curve" smooth="yes"/>
      <point x="359" y="-31"/>
      <point x="385" y="0"/>
      <point x="432" y="0" type="curve"/>
      <point x="439" y="96" type="line"/>
      <point x="295" y="96"/>
      <point x="182" y="27"/>
      <point x="182" y="-153" type="curve" smooth="yes"/>
      <point x="182" y="-254"/>
      <point x="255" y="-371"/>
    </contour>
  </outline>
</glyph>
<glyph name="hungarumlaut" format="1">
  <advance width="1531"/>
  <unicode hex="02DD"/>
  <outline>
    <contour>
      <point x="910" y="1170" type="curve" smooth="yes"/>
      <point x="1006" y="1170" type="line" smooth="yes"/>
      <point x="1044" y="1170"/>
      <point x="1052" y="1191"/>
      <point x="1062" y="1209" type="curve"/>
      <point x="1282" y="1553" type="line" smooth="yes"/>
      <point x="1289" y="1565"/>
      <point x="1294" y="1579"/>
      <point x="1294" y="1590" type="curve" smooth="yes"/>
      <point x="1294" y="1606"/>
      <point x="1286" y="1618"/>
      <point x="1266" y="1618" type="curve" smooth="yes"/>
      <point x="1006" y="1618" type="line" smooth="yes"/>
      <point x="962" y="1618"/>
      <point x="943" y="1606"/>
      <point x="935" y="1563" type="curve" smooth="yes"/>
      <point x="872" y="1237" type="line" smooth="yes"/>
      <point x="869" y="1223"/>
      <point x="868" y="1211"/>
      <point x="868" y="1202" type="curve" smooth="yes"/>
      <point x="868" y="1175"/>
      <point x="881" y="1170"/>
    </contour>
    <contour>
      <point x="415" y="1170" type="curve" smooth="yes"/>
      <point x="512" y="1170" type="line" smooth="yes"/>
      <point x="550" y="1170"/>
      <point x="557" y="1191"/>
      <point x="568" y="1209" type="curve" smooth="yes"/>
      <point x="787" y="1553" type="line" smooth="yes"/>
      <point x="794" y="1565"/>
      <point x="799" y="1579"/>
      <point x="799" y="1590" type="curve" smooth="yes"/>
      <point x="799" y="1606"/>
      <point x="791" y="1618"/>
      <point x="771" y="1618" type="curve" smooth="yes"/>
      <point x="511" y="1618" type="line" smooth="yes"/>
      <point x="467" y="1618"/>
      <point x="448" y="1606"/>
      <point x="440" y="1563" type="curve" smooth="yes"/>
      <point x="377" y="1237" type="line" smooth="yes"/>
      <point x="374" y="1223"/>
      <point x="373" y="1211"/>
      <point x="373" y="1202" type="curve" smooth="yes"/>
      <point x="373" y="1175"/>
      <point x="386" y="1170"/>
    </contour>
  </outline>
</glyph>
<glyph name="uni0307" format="1">
  <advance width="609"/>
  <unicode hex="0307"/>
  <outline>
    <contour>
      <point x="204.5" y="872" type="curve" smooth="yes"/>
      <point x="417.5" y="872" type="line" smooth="yes"/>
      <point x="460.5" y="872"/>
      <point x="494.5" y="906"/>
      <point x="494.5" y="949" type="curve" smooth="yes"/>
      <point x="494.5" y="1137" type="line" smooth="yes"/>
      <point x="494.5" y="1180"/>
      <point x="460.5" y="1214"/>
      <point x="417.5" y="1214" type="curve" smooth="yes"/>
      <point x="204.5" y="1214" type="line" smooth="yes"/>
      <point x="161.5" y="1214"/>
      <point x="127.5" y="1180"/>
      <point x="127.5" y="1137" type="curve" smooth="yes"/>
      <point x="127.5" y="949" type="line" smooth="yes"/>
      <point x="127.5" y="906"/>
      <point x="161.5" y="872"/>
    </contour>
  </outline>
</glyph>
<glyph name="quoteright" format="1">
  <advance width="658"/>
  <unicode hex="2019"/>
  <outline>
    <contour>
      <point x="217" y="803" type="curve" smooth="yes"/>
      <point x="355" y="826"/>
      <point x="529" y="938"/>
      <point x="529" y="1175" type="curve" smooth="yes"/>
      <point x="529" y="1407" type="line" smooth="yes"/>
      <point x="529" y="1450"/>
      <point x="507" y="1484"/>
      <point x="464" y="1484" type="curve" smooth="yes"/>
      <point x="202" y="1484" type="line" smooth="yes"/>
      <point x="159" y="1484"/>
      <point x="142" y="1452"/>
      <point x="142" y="1409" type="curve" smooth="yes"/>
      <point x="142" y="1206" type="line" smooth="yes"/>
      <point x="142" y="1168"/>
      <point x="164" y="1139"/>
      <point x="202" y="1139" type="curve" smooth="yes"/>
      <point x="280" y="1139" type="line" smooth="yes"/>
      <point x="295" y="1139"/>
      <point x="297" y="1128"/>
      <point x="297" y="1112" type="curve" smooth="yes"/>
      <point x="297" y="1088"/>
      <point x="281" y="1011"/>
      <point x="212" y="968" type="curve" smooth="yes"/>
      <point x="169" y="941"/>
      <point x="142" y="947"/>
      <point x="142" y="893" type="curve" smooth="yes"/>
      <point x="142" y="848" type="line" smooth="yes"/>
      <point x="142" y="817.143"/>
      <point x="171.388" y="801.714"/>
      <point x="201.825" y="801.714" type="curve" smooth="yes"/>
      <point x="206.898" y="801.714"/>
      <point x="212" y="802.143"/>
    </contour>
  </outline>
</glyph>
<glyph name="quotedblright" format="1">
  <advance width="1196"/>
  <unicode hex="201D"/>
  <outline>
    <contour>
      <point x="735" y="803" type="curve" smooth="yes"/>
      <point x="873" y="826"/>
      <point x="1048" y="938"/>
      <point x="1048" y="1175" type="curve" smooth="yes"/>
      <point x="1048" y="1407" type="line" smooth="yes"/>
      <point x="1048" y="1450"/>
      <point x="1026" y="1484"/>
      <point x="983" y="1484" type="curve" smooth="yes"/>
      <point x="721" y="1484" type="line" smooth="yes"/>
      <point x="678" y="1484"/>
      <point x="661" y="1452"/>
      <point x="661" y="1409" type="curve" smooth="yes"/>
      <point x="661" y="1206" type="line" smooth="yes"/>
      <point x="661" y="1168"/>
      <point x="683" y="1139"/>
      <point x="721" y="1139" type="curve" smooth="yes"/>
      <point x="798" y="1139" type="line" smooth="yes"/>
      <point x="813" y="1139"/>
      <point x="815" y="1128"/>
      <point x="815" y="1112" type="curve" smooth="yes"/>
      <point x="815" y="1088"/>
      <point x="799" y="1011"/>
      <point x="730" y="968" type="curve" smooth="yes"/>
      <point x="687" y="941"/>
      <point x="661" y="947"/>
      <point x="661" y="893" type="curve" smooth="yes"/>
      <point x="661" y="848" type="line" smooth="yes"/>
      <point x="661" y="817.143"/>
      <point x="689.653" y="801.714"/>
      <point x="719.88" y="801.714" type="curve" smooth="yes"/>
      <point x="724.918" y="801.714"/>
      <point x="730" y="802.143"/>
    </contour>
    <contour>
      <point x="225" y="803" type="curve" smooth="yes"/>
      <point x="363" y="826"/>
      <point x="537" y="938"/>
      <point x="537" y="1175" type="curve" smooth="yes"/>
      <point x="537" y="1407" type="line" smooth="yes"/>
      <point x="537" y="1450"/>
      <point x="515" y="1484"/>
      <point x="472" y="1484" type="curve" smooth="yes"/>
      <point x="210" y="1484" type="line" smooth="yes"/>
      <point x="167" y="1484"/>
      <point x="150" y="1452"/>
      <point x="150" y="1409" type="curve" smooth="yes"/>
      <point x="150" y="1206" type="line" smooth="yes"/>
      <point x="150" y="1168"/>
      <point x="172" y="1139"/>
      <point x="210" y="1139" type="curve" smooth="yes"/>
      <point x="288" y="1139" type="line" smooth="yes"/>
      <point x="303" y="1139"/>
      <point x="305" y="1128"/>
      <point x="305" y="1112" type="curve" smooth="yes"/>
      <point x="305" y="1088"/>
      <point x="289" y="1011"/>
      <point x="220" y="968" type="curve" smooth="yes"/>
      <point x="177" y="941"/>
      <point x="150" y="947"/>
      <point x="150" y="893" type="curve" smooth="yes"/>
      <point x="150" y="848" type="line" smooth="yes"/>
      <point x="150" y="817.143"/>
      <point x="179.388" y="801.714"/>
      <point x="209.825" y="801.714" type="curve" smooth="yes"/>
      <point x="214.898" y="801.714"/>
      <point x="220" y="802.143"/>
    </contour>
  </outline>
</glyph>
<glyph name="trademark" format="1">
  <advance width="3358"/>
  <unicode hex="2122"/>
  <outline>
    <contour>
      <point x="571" y="530" type="curve" smooth="yes"/>
      <point x="898" y="530" type="line" smooth="yes"/>
      <point x="926" y="530"/>
      <point x="948" y="551"/>
      <point x="948" y="580" type="curve" smooth="yes"/>
      <point x="948" y="1226" type="line" smooth="yes"/>
      <point x="948" y="1239"/>
      <point x="958" y="1249"/>
      <point x="971" y="1249" type="curve" smooth="yes"/>
      <point x="1308" y="1249" type="line" smooth="yes"/>
      <point x="1336" y="1249"/>
      <point x="1357" y="1272"/>
      <point x="1357" y="1300" type="curve" smooth="yes"/>
      <point x="1357" y="1417" type="line" smooth="yes"/>
      <point x="1357" y="1445"/>
      <point x="1336" y="1467"/>
      <point x="1308" y="1467" type="curve" smooth="yes"/>
      <point x="160" y="1467" type="line" smooth="yes"/>
      <point x="132" y="1467"/>
      <point x="111" y="1445"/>
      <point x="111" y="1417" type="curve" smooth="yes"/>
      <point x="111" y="1300" type="line" smooth="yes"/>
      <point x="111" y="1272"/>
      <point x="132" y="1249"/>
      <point x="160" y="1249" type="curve" smooth="yes"/>
      <point x="499" y="1249" type="line" smooth="yes"/>
      <point x="512" y="1249"/>
      <point x="522" y="1239"/>
      <point x="522" y="1226" type="curve" smooth="yes"/>
      <point x="522" y="580" type="line" smooth="yes"/>
      <point x="522" y="551"/>
      <point x="543" y="530"/>
    </contour>
    <contour>
      <point x="1573" y="530" type="curve" smooth="yes"/>
      <point x="1865" y="530" type="line" smooth="yes"/>
      <point x="1893" y="530"/>
      <point x="1914" y="551"/>
      <point x="1914" y="580" type="curve"/>
      <point x="1945" y="1054" type="line" smooth="yes"/>
      <point x="1945" y="1059"/>
      <point x="1954" y="1062"/>
      <point x="1956" y="1057" type="curve" smooth="yes"/>
      <point x="2238" y="574" type="line" smooth="yes"/>
      <point x="2253" y="547"/>
      <point x="2282" y="530"/>
      <point x="2312" y="530" type="curve" smooth="yes"/>
      <point x="2462" y="530" type="line" smooth="yes"/>
      <point x="2492" y="530"/>
      <point x="2520" y="547"/>
      <point x="2535" y="574" type="curve" smooth="yes"/>
      <point x="2820" y="1058" type="line" smooth="yes"/>
      <point x="2822" y="1063"/>
      <point x="2831" y="1061"/>
      <point x="2831" y="1055" type="curve" smooth="yes"/>
      <point x="2861" y="580" type="line" smooth="yes"/>
      <point x="2862" y="551"/>
      <point x="2883" y="530"/>
      <point x="2911" y="530" type="curve" smooth="yes"/>
      <point x="3203" y="530" type="line" smooth="yes"/>
      <point x="3231" y="530"/>
      <point x="3252" y="551"/>
      <point x="3252" y="580" type="curve"/>
      <point x="3197" y="1418" type="line" smooth="yes"/>
      <point x="3196" y="1446"/>
      <point x="3175" y="1467"/>
      <point x="3148" y="1467" type="curve" smooth="yes"/>
      <point x="2737" y="1467" type="line" smooth="yes"/>
      <point x="2707" y="1467"/>
      <point x="2679" y="1450"/>
      <point x="2664" y="1424" type="curve" smooth="yes"/>
      <point x="2398" y="952" type="line" smooth="yes"/>
      <point x="2394" y="944"/>
      <point x="2381" y="944"/>
      <point x="2376" y="952" type="curve" smooth="yes"/>
      <point x="2112" y="1424" type="line" smooth="yes"/>
      <point x="2097" y="1450"/>
      <point x="2069" y="1467"/>
      <point x="2039" y="1467" type="curve" smooth="yes"/>
      <point x="1628" y="1467" type="line" smooth="yes"/>
      <point x="1601" y="1467"/>
      <point x="1580" y="1446"/>
      <point x="1579" y="1418" type="curve" smooth="yes"/>
      <point x="1524" y="580" type="line"/>
      <point x="1524" y="551"/>
      <point x="1545" y="530"/>
    </contour>
  </outline>
</glyph>
<glyph name="uniFB01" format="1">
  <advance width="2341"/>
  <unicode hex="FB01"/>
  <outline>
    <contour>
      <point x="1707" y="1156" type="curve" smooth="yes"/>
      <point x="2105" y="1156" type="line" smooth="yes"/>
      <point x="2148" y="1156"/>
      <point x="2181" y="1189"/>
      <point x="2181" y="1232" type="curve" smooth="yes"/>
      <point x="2181" y="1441" type="line" smooth="yes"/>
      <point x="2181" y="1484"/>
      <point x="2148" y="1516"/>
      <point x="2105" y="1516" type="curve" smooth="yes"/>
      <point x="1707" y="1516" type="line" smooth="yes"/>
      <point x="1664" y="1516"/>
      <point x="1631" y="1484"/>
      <point x="1631" y="1441" type="curve" smooth="yes"/>
      <point x="1631" y="1232" type="line" smooth="yes"/>
      <point x="1631" y="1189"/>
      <point x="1664" y="1156"/>
    </contour>
    <contour>
      <point x="444" y="0" type="curve" smooth="yes"/>
      <point x="864" y="0" type="line" smooth="yes"/>
      <point x="907" y="0"/>
      <point x="941" y="34"/>
      <point x="941" y="77" type="curve" smooth="yes"/>
      <point x="941" y="762" type="line" smooth="yes"/>
      <point x="941" y="782"/>
      <point x="944" y="799"/>
      <point x="964" y="799" type="curve" smooth="yes"/>
      <point x="1631" y="799" type="line"/>
      <point x="1631" y="76" type="line" smooth="yes"/>
      <point x="1631" y="33"/>
      <point x="1664" y="0"/>
      <point x="1707" y="0" type="curve" smooth="yes"/>
      <point x="2105" y="0" type="line" smooth="yes"/>
      <point x="2148" y="0"/>
      <point x="2181" y="33"/>
      <point x="2181" y="76" type="curve" smooth="yes"/>
      <point x="2181" y="931" type="line" smooth="yes"/>
      <point x="2181" y="974"/>
      <point x="2148" y="1006"/>
      <point x="2105" y="1006" type="curve" smooth="yes"/>
      <point x="948" y="1006" type="line" smooth="yes"/>
      <point x="944" y="1006"/>
      <point x="941" y="1010"/>
      <point x="941" y="1013" type="curve" smooth="yes"/>
      <point x="941" y="1062" type="line" smooth="yes"/>
      <point x="941" y="1158"/>
      <point x="1036" y="1199"/>
      <point x="1201" y="1199" type="curve" smooth="yes"/>
      <point x="1267" y="1199"/>
      <point x="1403" y="1181"/>
      <point x="1408" y="1181" type="curve" smooth="yes"/>
      <point x="1442" y="1181"/>
      <point x="1449" y="1193"/>
      <point x="1449" y="1230" type="curve" smooth="yes"/>
      <point x="1449" y="1377" type="line" smooth="yes"/>
      <point x="1449" y="1405"/>
      <point x="1427" y="1431"/>
      <point x="1399" y="1438" type="curve"/>
      <point x="1294" y="1456"/>
      <point x="1157" y="1475"/>
      <point x="1026" y="1475" type="curve" smooth="yes"/>
      <point x="701" y="1475"/>
      <point x="389" y="1367"/>
      <point x="368" y="1044" type="curve" smooth="yes"/>
      <point x="367" y="1022"/>
      <point x="367" y="1006"/>
      <point x="345" y="1006" type="curve" smooth="yes"/>
      <point x="195" y="1006" type="line" smooth="yes"/>
      <point x="152" y="1006"/>
      <point x="128" y="988"/>
      <point x="128" y="945" type="curve" smooth="yes"/>
      <point x="128" y="851" type="line" smooth="yes"/>
      <point x="128" y="808"/>
      <point x="152" y="799"/>
      <point x="195" y="799" type="curve" smooth="yes"/>
      <point x="347" y="799" type="line" smooth="yes"/>
      <point x="367" y="799"/>
      <point x="367" y="782"/>
      <point x="367" y="762" type="curve" smooth="yes"/>
      <point x="367" y="77" type="line" smooth="yes"/>
      <point x="367" y="34"/>
      <point x="401" y="0"/>
    </contour>
  </outline>
</glyph>
<glyph name="uniFB00" format="1">
  <advance width="2740"/>
  <outline>
    <contour>
      <point x="444" y="0" type="curve" smooth="yes"/>
      <point x="864" y="0" type="line" smooth="yes"/>
      <point x="907" y="0"/>
      <point x="941" y="34"/>
      <point x="941" y="77" type="curve" smooth="yes"/>
      <point x="941" y="762" type="line" smooth="yes"/>
      <point x="941" y="782"/>
      <point x="944" y="799"/>
      <point x="964" y="799" type="curve" smooth="yes"/>
      <point x="1502" y="799" type="line" smooth="yes"/>
      <point x="1522" y="799"/>
      <point x="1522" y="782"/>
      <point x="1522" y="762" type="curve" smooth="yes"/>
      <point x="1522" y="77" type="line" smooth="yes"/>
      <point x="1522" y="34"/>
      <point x="1556" y="0"/>
      <point x="1599" y="0" type="curve" smooth="yes"/>
      <point x="2019" y="0" type="line" smooth="yes"/>
      <point x="2062" y="0"/>
      <point x="2096" y="34"/>
      <point x="2096" y="77" type="curve" smooth="yes"/>
      <point x="2096" y="762" type="line" smooth="yes"/>
      <point x="2096" y="782"/>
      <point x="2099" y="799"/>
      <point x="2119" y="799" type="curve" smooth="yes"/>
      <point x="2513" y="799" type="line" smooth="yes"/>
      <point x="2556" y="799"/>
      <point x="2580" y="808"/>
      <point x="2580" y="851" type="curve" smooth="yes"/>
      <point x="2580" y="951" type="line" smooth="yes"/>
      <point x="2580" y="994"/>
      <point x="2556" y="1006"/>
      <point x="2513" y="1006" type="curve" smooth="yes"/>
      <point x="2103" y="1006" type="line" smooth="yes"/>
      <point x="2099" y="1006"/>
      <point x="2096" y="1010"/>
      <point x="2096" y="1013" type="curve" smooth="yes"/>
      <point x="2096" y="1062" type="line" smooth="yes"/>
      <point x="2096" y="1158"/>
      <point x="2191" y="1199"/>
      <point x="2356" y="1199" type="curve" smooth="yes"/>
      <point x="2422" y="1199"/>
      <point x="2558" y="1181"/>
      <point x="2563" y="1181" type="curve" smooth="yes"/>
      <point x="2597" y="1181"/>
      <point x="2604" y="1193"/>
      <point x="2604" y="1230" type="curve" smooth="yes"/>
      <point x="2604" y="1377" type="line" smooth="yes"/>
      <point x="2604" y="1405"/>
      <point x="2582" y="1431"/>
      <point x="2554" y="1438" type="curve"/>
      <point x="2448" y="1456"/>
      <point x="2312" y="1475"/>
      <point x="2181" y="1475" type="curve" smooth="yes"/>
      <point x="1856" y="1475"/>
      <point x="1543" y="1367"/>
      <point x="1523" y="1044" type="curve" smooth="yes"/>
      <point x="1522" y="1022"/>
      <point x="1522" y="1006"/>
      <point x="1500" y="1006" type="curve" smooth="yes"/>
      <point x="948" y="1006" type="line" smooth="yes"/>
      <point x="944" y="1006"/>
      <point x="941" y="1010"/>
      <point x="941" y="1013" type="curve" smooth="yes"/>
      <point x="941" y="1062" type="line" smooth="yes"/>
      <point x="941" y="1158"/>
      <point x="1036" y="1199"/>
      <point x="1201" y="1199" type="curve" smooth="yes"/>
      <point x="1267" y="1199"/>
      <point x="1403" y="1181"/>
      <point x="1408" y="1181" type="curve" smooth="yes"/>
      <point x="1442" y="1181"/>
      <point x="1449" y="1193"/>
      <point x="1449" y="1230" type="curve" smooth="yes"/>
      <point x="1449" y="1377" type="line" smooth="yes"/>
      <point x="1449" y="1405"/>
      <point x="1427" y="1431"/>
      <point x="1399" y="1438" type="curve"/>
      <point x="1294" y="1456"/>
      <point x="1157" y="1475"/>
      <point x="1026" y="1475" type="curve" smooth="yes"/>
      <point x="701" y="1475"/>
      <point x="389" y="1367"/>
      <point x="368" y="1044" type="curve" smooth="yes"/>
      <point x="367" y="1022"/>
      <point x="367" y="1006"/>
      <point x="345" y="1006" type="curve" smooth="yes"/>
      <point x="195" y="1006" type="line" smooth="yes"/>
      <point x="152" y="1006"/>
      <point x="128" y="988"/>
      <point x="128" y="945" type="curve" smooth="yes"/>
      <point x="128" y="851" type="line" smooth="yes"/>
      <point x="128" y="808"/>
      <point x="152" y="799"/>
      <point x="195" y="799" type="curve" smooth="yes"/>
      <point x="347" y="799" type="line" smooth="yes"/>
      <point x="367" y="799"/>
      <point x="367" y="782"/>
      <point x="367" y="762" type="curve" smooth="yes"/>
      <point x="367" y="77" type="line" smooth="yes"/>
      <point x="367" y="34"/>
      <point x="401" y="0"/>
    </contour>
  </outline>
</glyph>
